<svg width="12" height="8" viewBox="0 0 12 8" fill="none" xmlns="http://www.w3.org/2000/svg">
<path d="M5.99991 7.075C5.89991 7.075 5.80824 7.05833 5.72491 7.025C5.64157 6.99166 5.55824 6.93333 5.47491 6.85L0.524905 1.9C0.391572 1.76666 0.329072 1.5875 0.337405 1.3625C0.345739 1.1375 0.416572 0.95833 0.549905 0.824996C0.716572 0.65833 0.895739 0.587496 1.08741 0.612496C1.27907 0.637496 1.44991 0.716663 1.59991 0.849996L5.99991 5.25L10.3999 0.849996C10.5332 0.716663 10.7124 0.641663 10.9374 0.624996C11.1624 0.60833 11.3416 0.68333 11.4749 0.849996C11.6416 0.98333 11.7124 1.15833 11.6874 1.375C11.6624 1.59166 11.5832 1.775 11.4499 1.925L6.52491 6.85C6.44157 6.93333 6.35824 6.99166 6.27491 7.025C6.19157 7.05833 6.09991 7.075 5.99991 7.075Z" fill="#828282"/>
</svg>
