<svg width="35" height="39" viewBox="0 0 35 39" fill="none" xmlns="http://www.w3.org/2000/svg">
<path d="M3.50082 3.22772C3.80038 1.4451 5.48832 0.242841 7.27094 0.5424C9.21913 0.869783 10.4355 2.83537 9.85914 4.72495L4.29023 22.9837C3.99192 23.9618 3.01407 24.5665 2.00575 24.3965C0.898019 24.2098 0.151191 23.1607 0.337355 22.0529L3.50082 3.22772Z" fill="#FF7F00"/>
<path d="M20.9122 9.4196C21.9615 7.9567 23.9979 7.62135 25.4608 8.67057C27.0677 9.82303 27.2866 12.1292 25.9253 13.5634L13.718 26.4249C13.0156 27.1649 11.8747 27.2729 11.0459 26.6779C10.1301 26.0204 9.92044 24.7451 10.5775 23.829L20.9122 9.4196Z" fill="#FF7F00"/>
<path d="M28.3884 22.8099C29.8669 21.8103 31.8759 22.1986 32.8754 23.6772C33.985 25.3185 33.37 27.5626 31.5787 28.4089L17.7362 34.9489C16.8181 35.3826 15.7208 35.0817 15.1524 34.2402C14.5167 33.2989 14.7641 32.0204 15.7051 31.3842L28.3884 22.8099Z" fill="#FF7F00"/>
</svg>
