<svg width="16" height="16" viewBox="0 0 16 16" fill="none" xmlns="http://www.w3.org/2000/svg">
<path d="M6.875 15.3L0.275 8.69999C0.175 8.59999 0.104167 8.49165 0.0625 8.37499C0.0208333 8.25832 0 8.13332 0 7.99999C0 7.86665 0.0208333 7.74165 0.0625 7.62499C0.104167 7.50832 0.175 7.39999 0.275 7.29999L6.875 0.699987C7.05833 0.516654 7.2875 0.420821 7.5625 0.412487C7.8375 0.404154 8.075 0.499987 8.275 0.699987C8.475 0.883321 8.57917 1.11249 8.5875 1.38749C8.59583 1.66249 8.5 1.89999 8.3 2.09999L3.4 6.99999H14.575C14.8583 6.99999 15.0958 7.09582 15.2875 7.28749C15.4792 7.47915 15.575 7.71665 15.575 7.99999C15.575 8.28332 15.4792 8.52082 15.2875 8.71249C15.0958 8.90415 14.8583 8.99999 14.575 8.99999H3.4L8.3 13.9C8.48333 14.0833 8.57917 14.3167 8.5875 14.6C8.59583 14.8833 8.5 15.1167 8.3 15.3C8.11667 15.5 7.88333 15.6 7.6 15.6C7.31667 15.6 7.075 15.5 6.875 15.3Z" fill="#DC0019"/>
</svg>
