<svg width="64" height="65" viewBox="0 0 64 65" fill="none" xmlns="http://www.w3.org/2000/svg">
<rect y="0.540039" width="64" height="64" rx="32" fill="#9370DB" fill-opacity="0.1"/>
<path fill-rule="evenodd" clip-rule="evenodd" d="M23 25.415C23 24.3795 23.8395 23.54 24.875 23.54H29.375C30.4105 23.54 31.25 24.3795 31.25 25.415V29.915C31.25 30.9506 30.4105 31.79 29.375 31.79H24.875C23.8395 31.79 23 30.9506 23 29.915V25.415ZM24.875 25.04C24.6679 25.04 24.5 25.2079 24.5 25.415V29.915C24.5 30.1221 24.6679 30.29 24.875 30.29H29.375C29.5821 30.29 29.75 30.1221 29.75 29.915V25.415C29.75 25.2079 29.5821 25.04 29.375 25.04H24.875ZM32.75 25.415C32.75 24.3795 33.5895 23.54 34.625 23.54H39.125C40.1605 23.54 41 24.3795 41 25.415V29.915C41 30.9506 40.1605 31.79 39.125 31.79H34.625C33.5895 31.79 32.75 30.9506 32.75 29.915V25.415ZM34.625 25.04C34.4179 25.04 34.25 25.2079 34.25 25.415V29.915C34.25 30.1221 34.4179 30.29 34.625 30.29H39.125C39.3321 30.29 39.5 30.1221 39.5 29.915V25.415C39.5 25.2079 39.3321 25.04 39.125 25.04H34.625ZM26 27.29C26 26.8758 26.3358 26.54 26.75 26.54H27.5C27.9142 26.54 28.25 26.8758 28.25 27.29V28.04C28.25 28.4543 27.9142 28.79 27.5 28.79H26.75C26.3358 28.79 26 28.4543 26 28.04V27.29ZM35.75 27.29C35.75 26.8758 36.0858 26.54 36.5 26.54H37.25C37.6642 26.54 38 26.8758 38 27.29V28.04C38 28.4543 37.6642 28.79 37.25 28.79H36.5C36.0858 28.79 35.75 28.4543 35.75 28.04V27.29ZM23 35.165C23 34.1295 23.8395 33.29 24.875 33.29H29.375C30.4105 33.29 31.25 34.1295 31.25 35.165V39.665C31.25 40.7006 30.4105 41.54 29.375 41.54H24.875C23.8395 41.54 23 40.7006 23 39.665V35.165ZM24.875 34.79C24.6679 34.79 24.5 34.9579 24.5 35.165V39.665C24.5 39.8721 24.6679 40.04 24.875 40.04H29.375C29.5821 40.04 29.75 39.8721 29.75 39.665V35.165C29.75 34.9579 29.5821 34.79 29.375 34.79H24.875ZM32.75 34.04C32.75 33.6258 33.0858 33.29 33.5 33.29H34.25C34.6642 33.29 35 33.6258 35 34.04V34.79C35 35.2043 34.6642 35.54 34.25 35.54H33.5C33.0858 35.54 32.75 35.2043 32.75 34.79V34.04ZM38.75 34.04C38.75 33.6258 39.0858 33.29 39.5 33.29H40.25C40.6642 33.29 41 33.6258 41 34.04V34.79C41 35.2043 40.6642 35.54 40.25 35.54H39.5C39.0858 35.54 38.75 35.2043 38.75 34.79V34.04ZM26 37.04C26 36.6258 26.3358 36.29 26.75 36.29H27.5C27.9142 36.29 28.25 36.6258 28.25 37.04V37.79C28.25 38.2043 27.9142 38.54 27.5 38.54H26.75C26.3358 38.54 26 38.2043 26 37.79V37.04ZM35.75 37.04C35.75 36.6258 36.0858 36.29 36.5 36.29H37.25C37.6642 36.29 38 36.6258 38 37.04V37.79C38 38.2043 37.6642 38.54 37.25 38.54H36.5C36.0858 38.54 35.75 38.2043 35.75 37.79V37.04ZM32.75 40.04C32.75 39.6258 33.0858 39.29 33.5 39.29H34.25C34.6642 39.29 35 39.6258 35 40.04V40.79C35 41.2043 34.6642 41.54 34.25 41.54H33.5C33.0858 41.54 32.75 41.2043 32.75 40.79V40.04ZM38.75 40.04C38.75 39.6258 39.0858 39.29 39.5 39.29H40.25C40.6642 39.29 41 39.6258 41 40.04V40.79C41 41.2043 40.6642 41.54 40.25 41.54H39.5C39.0858 41.54 38.75 41.2043 38.75 40.79V40.04Z" fill="#B39BE5"/>
</svg>
