<svg width="64" height="64" viewBox="0 0 64 64" fill="none" xmlns="http://www.w3.org/2000/svg">
<rect width="64" height="64" rx="32" fill="#FFA07A" fill-opacity="0.1"/>
<path d="M39.3 27.92L39.3 33.07C39.3 36.15 37.54 37.47 34.9 37.47L26.11 37.47C25.66 37.47 25.23 37.43 24.83 37.34C24.58 37.3 24.34 37.23 24.12 37.15C22.62 36.59 21.71 35.29 21.71 33.07L21.71 27.92C21.71 24.84 23.47 23.52 26.11 23.52L34.9 23.52C37.14 23.52 38.75 24.47 39.18 26.64C39.25 27.04 39.3 27.45 39.3 27.92Z" stroke="#FFA07A" stroke-width="1.5" stroke-miterlimit="10" stroke-linecap="round" stroke-linejoin="round"/>
<path d="M42.3011 30.9201L42.3011 36.0701C42.3011 39.1501 40.5411 40.4701 37.9011 40.4701L29.1111 40.4701C28.3711 40.4701 27.7011 40.3701 27.1211 40.1501C25.9311 39.7101 25.1211 38.8001 24.8311 37.3401C25.2311 37.4301 25.6611 37.4701 26.1111 37.4701L34.9011 37.4701C37.5411 37.4701 39.3011 36.1501 39.3011 33.0701L39.3011 27.9201C39.3011 27.4501 39.2611 27.0301 39.1811 26.6401C41.0811 27.0401 42.3011 28.3801 42.3011 30.9201Z" stroke="#FFA07A" stroke-width="1.5" stroke-miterlimit="10" stroke-linecap="round" stroke-linejoin="round"/>
<path d="M30.4984 33.1399C31.9564 33.1399 33.1384 31.9579 33.1384 30.4999C33.1384 29.0418 31.9564 27.8599 30.4984 27.8599C29.0404 27.8599 27.8584 29.0418 27.8584 30.4999C27.8584 31.9579 29.0404 33.1399 30.4984 33.1399Z" stroke="#FFA07A" stroke-width="1.5" stroke-miterlimit="10" stroke-linecap="round" stroke-linejoin="round"/>
<path d="M24.78 28.3L24.78 32.7" stroke="#FFA07A" stroke-width="1.5" stroke-miterlimit="10" stroke-linecap="round" stroke-linejoin="round"/>
<path d="M36.2217 28.3003L36.2217 32.7003" stroke="#FFA07A" stroke-width="1.5" stroke-miterlimit="10" stroke-linecap="round" stroke-linejoin="round"/>
</svg>
