<svg width="64" height="64" viewBox="0 0 64 64" fill="none" xmlns="http://www.w3.org/2000/svg">
<rect width="64" height="64" rx="32" fill="#9370DB" fill-opacity="0.1"/>
<path d="M32 42.423C31.5141 42.423 31.101 42.2528 30.7606 41.9125C30.4202 41.5721 30.25 41.1589 30.25 40.673C30.25 40.1872 30.4202 39.774 30.7606 39.4336C31.101 39.0933 31.5141 38.9231 32 38.9231C32.4859 38.9231 32.8991 39.0933 33.2394 39.4336C33.5798 39.774 33.75 40.1872 33.75 40.673C33.75 41.1589 33.5798 41.5721 33.2394 41.9125C32.8991 42.2528 32.4859 42.423 32 42.423V42.423ZM26.1154 24.9231C25.6295 24.9231 25.2164 24.7529 24.876 24.4125C24.5356 24.0721 24.3654 23.659 24.3654 23.1731C24.3654 22.6872 24.5356 22.2741 24.876 21.9337C25.2164 21.5933 25.6295 21.4231 26.1154 21.4231C26.6013 21.4231 27.0144 21.5933 27.3548 21.9337C27.6952 22.2741 27.8654 22.6872 27.8654 23.1731C27.8654 23.659 27.6952 24.0721 27.3548 24.4125C27.0144 24.7529 26.6013 24.9231 26.1154 24.9231ZM26.1154 30.8077C25.6295 30.8077 25.2164 30.6375 24.876 30.2971C24.5356 29.9567 24.3654 29.5436 24.3654 29.0577C24.3654 28.5718 24.5356 28.1587 24.876 27.8183C25.2164 27.4779 25.6295 27.3077 26.1154 27.3077C26.6013 27.3077 27.0144 27.4779 27.3548 27.8183C27.6952 28.1587 27.8654 28.5718 27.8654 29.0577C27.8654 29.5436 27.6952 29.9567 27.3548 30.2971C27.0144 30.6375 26.6013 30.8077 26.1154 30.8077ZM26.1154 36.6923C25.6295 36.6923 25.2164 36.5221 24.876 36.1817C24.5356 35.8413 24.3654 35.4282 24.3654 34.9423C24.3654 34.4564 24.5356 34.0433 24.876 33.7029C25.2164 33.3625 25.6295 33.1923 26.1154 33.1923C26.6013 33.1923 27.0144 33.3625 27.3548 33.7029C27.6952 34.0433 27.8654 34.4564 27.8654 34.9423C27.8654 35.4282 27.6952 35.8413 27.3548 36.1817C27.0144 36.5221 26.6013 36.6923 26.1154 36.6923ZM37.8846 24.9231C37.3987 24.9231 36.9856 24.7529 36.6452 24.4125C36.3048 24.0721 36.1346 23.659 36.1346 23.1731C36.1346 22.6872 36.3048 22.2741 36.6452 21.9337C36.9856 21.5933 37.3987 21.4231 37.8846 21.4231C38.3705 21.4231 38.7837 21.5933 39.124 21.9337C39.4644 22.2741 39.6346 22.6872 39.6346 23.1731C39.6346 23.659 39.4644 24.0721 39.124 24.4125C38.7837 24.7529 38.3705 24.9231 37.8846 24.9231ZM32 36.6923C31.5141 36.6923 31.101 36.5221 30.7606 36.1817C30.4202 35.8413 30.25 35.4282 30.25 34.9423C30.25 34.4564 30.4202 34.0433 30.7606 33.7029C31.101 33.3625 31.5141 33.1923 32 33.1923C32.4859 33.1923 32.8991 33.3625 33.2394 33.7029C33.5798 34.0433 33.75 34.4564 33.75 34.9423C33.75 35.4282 33.5798 35.8413 33.2394 36.1817C32.8991 36.5221 32.4859 36.6923 32 36.6923ZM37.8846 36.6923C37.3987 36.6923 36.9856 36.5221 36.6452 36.1817C36.3048 35.8413 36.1346 35.4282 36.1346 34.9423C36.1346 34.4564 36.3048 34.0433 36.6452 33.7029C36.9856 33.3625 37.3987 33.1923 37.8846 33.1923C38.3705 33.1923 38.7837 33.3625 39.124 33.7029C39.4644 34.0433 39.6346 34.4564 39.6346 34.9423C39.6346 35.4282 39.4644 35.8413 39.124 36.1817C38.7837 36.5221 38.3705 36.6923 37.8846 36.6923ZM37.8846 30.8077C37.3987 30.8077 36.9856 30.6375 36.6452 30.2971C36.3048 29.9567 36.1346 29.5436 36.1346 29.0577C36.1346 28.5718 36.3048 28.1587 36.6452 27.8183C36.9856 27.4779 37.3987 27.3077 37.8846 27.3077C38.3705 27.3077 38.7837 27.4779 39.124 27.8183C39.4644 28.1587 39.6346 28.5718 39.6346 29.0577C39.6346 29.5436 39.4644 29.9567 39.124 30.2971C38.7837 30.6375 38.3705 30.8077 37.8846 30.8077ZM32 30.8077C31.5141 30.8077 31.101 30.6375 30.7606 30.2971C30.4202 29.9567 30.25 29.5436 30.25 29.0577C30.25 28.5718 30.4202 28.1587 30.7606 27.8183C31.101 27.4779 31.5141 27.3077 32 27.3077C32.4859 27.3077 32.8991 27.4779 33.2394 27.8183C33.5798 28.1587 33.75 28.5718 33.75 29.0577C33.75 29.5436 33.5798 29.9567 33.2394 30.2971C32.8991 30.6375 32.4859 30.8077 32 30.8077ZM32 24.9231C31.5141 24.9231 31.101 24.7529 30.7606 24.4125C30.4202 24.0721 30.25 23.659 30.25 23.1731C30.25 22.6872 30.4202 22.2741 30.7606 21.9337C31.101 21.5933 31.5141 21.4231 32 21.4231C32.4859 21.4231 32.8991 21.5933 33.2394 21.9337C33.5798 22.2741 33.75 22.6872 33.75 23.1731C33.75 23.659 33.5798 24.0721 33.2394 24.4125C32.8991 24.7529 32.4859 24.9231 32 24.9231Z" fill="#9370DB"/>
</svg>
