<svg width="64" height="64" viewBox="0 0 64 64" fill="none" xmlns="http://www.w3.org/2000/svg">
<rect width="64" height="64" rx="32" fill="#CDA11E" fill-opacity="0.1"/>
<path d="M44 26L44 38C44 42.8 42.5 44 36.5 44L27.5 44C21.5 44 20 42.8 20 38L20 26C20 21.2 21.5 20 27.5 20L36.5 20C42.5 20 44 21.2 44 26Z" stroke="#CDA11E" stroke-width="1.5" stroke-linecap="round" stroke-linejoin="round"/>
<path d="M35 24.2L29 24.2" stroke="#CDA11E" stroke-width="1.5" stroke-linecap="round" stroke-linejoin="round"/>
<path d="M32 40.5201C33.2841 40.5201 34.325 39.6873 34.325 38.66C34.325 37.6328 33.2841 36.8 32 36.8C30.7159 36.8 29.675 37.6328 29.675 38.66C29.675 39.6873 30.7159 40.5201 32 40.5201Z" stroke="#CDA11E" stroke-width="1.5" stroke-linecap="round" stroke-linejoin="round"/>
</svg>
