<svg width="20" height="21" viewBox="0 0 20 21" fill="none" xmlns="http://www.w3.org/2000/svg">
<path d="M4.99967 18.8332C4.54134 18.8332 4.14898 18.67 3.82259 18.3436C3.4962 18.0172 3.33301 17.6248 3.33301 17.1665V13.8332C3.33301 13.3748 3.4962 12.9825 3.82259 12.6561C4.14898 12.3297 4.54134 12.1665 4.99967 12.1665H14.9997C15.458 12.1665 15.8504 12.3297 16.1768 12.6561C16.5031 12.9825 16.6663 13.3748 16.6663 13.8332V17.1665C16.6663 17.6248 16.5031 18.0172 16.1768 18.3436C15.8504 18.67 15.458 18.8332 14.9997 18.8332H4.99967ZM5.83301 15.4998H14.1663C14.4025 15.4998 14.6004 15.42 14.7601 15.2603C14.9198 15.1005 14.9997 14.9026 14.9997 14.6665C14.9997 14.4304 14.9198 14.2325 14.7601 14.0728C14.6004 13.913 14.4025 13.8332 14.1663 13.8332H5.83301C5.5969 13.8332 5.39898 13.913 5.23926 14.0728C5.07954 14.2325 4.99967 14.4304 4.99967 14.6665C4.99967 14.9026 5.07954 15.1005 5.23926 15.2603C5.39898 15.42 5.5969 15.4998 5.83301 15.4998ZM9.31217 11.2082L6.22884 6.89567C6.10384 6.71512 6.01704 6.5172 5.96842 6.30192C5.91981 6.08664 5.9094 5.86789 5.93717 5.64567C6.10384 4.63178 6.56217 3.79845 7.31217 3.14567C8.06217 2.49289 8.95801 2.1665 9.99967 2.1665C11.0413 2.1665 11.9372 2.49289 12.6872 3.14567C13.4372 3.79845 13.8955 4.63178 14.0622 5.64567C14.09 5.86789 14.0795 6.08664 14.0309 6.30192C13.9823 6.5172 13.8955 6.71512 13.7705 6.89567L10.6872 11.2082C10.5205 11.4443 10.2913 11.5623 9.99967 11.5623C9.70801 11.5623 9.47884 11.4443 9.31217 11.2082ZM9.99967 9.83317L12.4997 6.33317C12.4997 5.63873 12.2566 5.04845 11.7705 4.56234C11.2844 4.07623 10.6941 3.83317 9.99967 3.83317C9.30523 3.83317 8.71495 4.07623 8.22884 4.56234C7.74273 5.04845 7.49967 5.63873 7.49967 6.33317L9.99967 9.83317Z" fill="#828282"/>
</svg>
