<svg width="20" height="21" viewBox="0 0 20 21" fill="none" xmlns="http://www.w3.org/2000/svg">
<g id="Icon/Calendar">
<path id="Vector" d="M4.16667 18.8332C3.70833 18.8332 3.31597 18.67 2.98958 18.3436C2.66319 18.0172 2.5 17.6248 2.5 17.1665V5.49984C2.5 5.0415 2.66319 4.64914 2.98958 4.32275C3.31597 3.99637 3.70833 3.83317 4.16667 3.83317H5V2.99984C5 2.76373 5.07986 2.56581 5.23958 2.40609C5.39931 2.24637 5.59722 2.1665 5.83333 2.1665C6.06944 2.1665 6.26736 2.24637 6.42708 2.40609C6.58681 2.56581 6.66667 2.76373 6.66667 2.99984V3.83317H13.3333V2.99984C13.3333 2.76373 13.4132 2.56581 13.5729 2.40609C13.7326 2.24637 13.9306 2.1665 14.1667 2.1665C14.4028 2.1665 14.6007 2.24637 14.7604 2.40609C14.9201 2.56581 15 2.76373 15 2.99984V3.83317H15.8333C16.2917 3.83317 16.684 3.99637 17.0104 4.32275C17.3368 4.64914 17.5 5.0415 17.5 5.49984V17.1665C17.5 17.6248 17.3368 18.0172 17.0104 18.3436C16.684 18.67 16.2917 18.8332 15.8333 18.8332H4.16667ZM4.16667 17.1665H15.8333V8.83317H4.16667V17.1665ZM4.16667 7.1665H15.8333V5.49984H4.16667V7.1665ZM10 12.1665C9.76389 12.1665 9.56597 12.0866 9.40625 11.9269C9.24653 11.7672 9.16667 11.5693 9.16667 11.3332C9.16667 11.0971 9.24653 10.8991 9.40625 10.7394C9.56597 10.5797 9.76389 10.4998 10 10.4998C10.2361 10.4998 10.434 10.5797 10.5938 10.7394C10.7535 10.8991 10.8333 11.0971 10.8333 11.3332C10.8333 11.5693 10.7535 11.7672 10.5938 11.9269C10.434 12.0866 10.2361 12.1665 10 12.1665ZM6.66667 12.1665C6.43056 12.1665 6.23264 12.0866 6.07292 11.9269C5.91319 11.7672 5.83333 11.5693 5.83333 11.3332C5.83333 11.0971 5.91319 10.8991 6.07292 10.7394C6.23264 10.5797 6.43056 10.4998 6.66667 10.4998C6.90278 10.4998 7.10069 10.5797 7.26042 10.7394C7.42014 10.8991 7.5 11.0971 7.5 11.3332C7.5 11.5693 7.42014 11.7672 7.26042 11.9269C7.10069 12.0866 6.90278 12.1665 6.66667 12.1665ZM13.3333 12.1665C13.0972 12.1665 12.8993 12.0866 12.7396 11.9269C12.5799 11.7672 12.5 11.5693 12.5 11.3332C12.5 11.0971 12.5799 10.8991 12.7396 10.7394C12.8993 10.5797 13.0972 10.4998 13.3333 10.4998C13.5694 10.4998 13.7674 10.5797 13.9271 10.7394C14.0868 10.8991 14.1667 11.0971 14.1667 11.3332C14.1667 11.5693 14.0868 11.7672 13.9271 11.9269C13.7674 12.0866 13.5694 12.1665 13.3333 12.1665ZM10 15.4998C9.76389 15.4998 9.56597 15.42 9.40625 15.2603C9.24653 15.1005 9.16667 14.9026 9.16667 14.6665C9.16667 14.4304 9.24653 14.2325 9.40625 14.0728C9.56597 13.913 9.76389 13.8332 10 13.8332C10.2361 13.8332 10.434 13.913 10.5938 14.0728C10.7535 14.2325 10.8333 14.4304 10.8333 14.6665C10.8333 14.9026 10.7535 15.1005 10.5938 15.2603C10.434 15.42 10.2361 15.4998 10 15.4998ZM6.66667 15.4998C6.43056 15.4998 6.23264 15.42 6.07292 15.2603C5.91319 15.1005 5.83333 14.9026 5.83333 14.6665C5.83333 14.4304 5.91319 14.2325 6.07292 14.0728C6.23264 13.913 6.43056 13.8332 6.66667 13.8332C6.90278 13.8332 7.10069 13.913 7.26042 14.0728C7.42014 14.2325 7.5 14.4304 7.5 14.6665C7.5 14.9026 7.42014 15.1005 7.26042 15.2603C7.10069 15.42 6.90278 15.4998 6.66667 15.4998ZM13.3333 15.4998C13.0972 15.4998 12.8993 15.42 12.7396 15.2603C12.5799 15.1005 12.5 14.9026 12.5 14.6665C12.5 14.4304 12.5799 14.2325 12.7396 14.0728C12.8993 13.913 13.0972 13.8332 13.3333 13.8332C13.5694 13.8332 13.7674 13.913 13.9271 14.0728C14.0868 14.2325 14.1667 14.4304 14.1667 14.6665C14.1667 14.9026 14.0868 15.1005 13.9271 15.2603C13.7674 15.42 13.5694 15.4998 13.3333 15.4998Z" fill="#828282"/>
</g>
</svg>
