<svg width="40" height="40" viewBox="0 0 40 40" fill="none" xmlns="http://www.w3.org/2000/svg">
<rect width="40" height="40" rx="20" fill="#FFF0F0"/>
<path d="M19.9999 20.9334L21.9333 22.8667C22.0555 22.9889 22.211 23.05 22.3999 23.05C22.5888 23.05 22.7444 22.9889 22.8666 22.8667C22.9888 22.7445 23.0499 22.5889 23.0499 22.4C23.0499 22.2112 22.9888 22.0556 22.8666 21.9334L20.9333 20L22.8666 18.0667C22.9888 17.9445 23.0499 17.7889 23.0499 17.6C23.0499 17.4112 22.9888 17.2556 22.8666 17.1334C22.7444 17.0112 22.5888 16.95 22.3999 16.95C22.211 16.95 22.0555 17.0112 21.9333 17.1334L19.9999 19.0667L18.0666 17.1334C17.9444 17.0112 17.7888 16.95 17.5999 16.95C17.411 16.95 17.2555 17.0112 17.1333 17.1334C17.011 17.2556 16.9499 17.4112 16.9499 17.6C16.9499 17.7889 17.011 17.9445 17.1333 18.0667L19.0666 20L17.1333 21.9334C17.011 22.0556 16.9499 22.2112 16.9499 22.4C16.9499 22.5889 17.011 22.7445 17.1333 22.8667C17.2555 22.9889 17.411 23.05 17.5999 23.05C17.7888 23.05 17.9444 22.9889 18.0666 22.8667L19.9999 20.9334ZM19.9999 26.6667C19.0777 26.6667 18.211 26.4917 17.3999 26.1417C16.5888 25.7917 15.8833 25.3167 15.2833 24.7167C14.6833 24.1167 14.2083 23.4112 13.8583 22.6C13.5083 21.7889 13.3333 20.9223 13.3333 20C13.3333 19.0778 13.5083 18.2112 13.8583 17.4C14.2083 16.5889 14.6833 15.8834 15.2833 15.2834C15.8833 14.6834 16.5888 14.2084 17.3999 13.8584C18.211 13.5084 19.0777 13.3334 19.9999 13.3334C20.9221 13.3334 21.7888 13.5084 22.5999 13.8584C23.411 14.2084 24.1166 14.6834 24.7166 15.2834C25.3166 15.8834 25.7916 16.5889 26.1416 17.4C26.4916 18.2112 26.6666 19.0778 26.6666 20C26.6666 20.9223 26.4916 21.7889 26.1416 22.6C25.7916 23.4112 25.3166 24.1167 24.7166 24.7167C24.1166 25.3167 23.411 25.7917 22.5999 26.1417C21.7888 26.4917 20.9221 26.6667 19.9999 26.6667ZM19.9999 25.3334C21.4888 25.3334 22.7499 24.8167 23.7833 23.7834C24.8166 22.75 25.3333 21.4889 25.3333 20C25.3333 18.5112 24.8166 17.25 23.7833 16.2167C22.7499 15.1834 21.4888 14.6667 19.9999 14.6667C18.511 14.6667 17.2499 15.1834 16.2166 16.2167C15.1833 17.25 14.6666 18.5112 14.6666 20C14.6666 21.4889 15.1833 22.75 16.2166 23.7834C17.2499 24.8167 18.511 25.3334 19.9999 25.3334Z" fill="#E62929"/>
</svg>
