<svg width="16" height="17" viewBox="0 0 16 17" fill="none" xmlns="http://www.w3.org/2000/svg">
<g id="Icon/check">
<path id="Vector" d="M7.06683 9.69992L5.6335 8.26659C5.51127 8.14436 5.35572 8.08325 5.16683 8.08325C4.97794 8.08325 4.82239 8.14436 4.70016 8.26659C4.57794 8.38881 4.51683 8.54436 4.51683 8.73325C4.51683 8.92214 4.57794 9.0777 4.70016 9.19992L6.60016 11.0999C6.7335 11.2333 6.88905 11.2999 7.06683 11.2999C7.24461 11.2999 7.40016 11.2333 7.5335 11.0999L11.3002 7.33325C11.4224 7.21103 11.4835 7.05547 11.4835 6.86659C11.4835 6.6777 11.4224 6.52214 11.3002 6.39992C11.1779 6.2777 11.0224 6.21659 10.8335 6.21659C10.6446 6.21659 10.4891 6.2777 10.3668 6.39992L7.06683 9.69992ZM8.00016 15.1666C7.07794 15.1666 6.21127 14.9916 5.40016 14.6416C4.58905 14.2916 3.8835 13.8166 3.2835 13.2166C2.6835 12.6166 2.2085 11.911 1.8585 11.0999C1.5085 10.2888 1.3335 9.42214 1.3335 8.49992C1.3335 7.5777 1.5085 6.71103 1.8585 5.89992C2.2085 5.08881 2.6835 4.38325 3.2835 3.78325C3.8835 3.18325 4.58905 2.70825 5.40016 2.35825C6.21127 2.00825 7.07794 1.83325 8.00016 1.83325C8.92239 1.83325 9.78905 2.00825 10.6002 2.35825C11.4113 2.70825 12.1168 3.18325 12.7168 3.78325C13.3168 4.38325 13.7918 5.08881 14.1418 5.89992C14.4918 6.71103 14.6668 7.5777 14.6668 8.49992C14.6668 9.42214 14.4918 10.2888 14.1418 11.0999C13.7918 11.911 13.3168 12.6166 12.7168 13.2166C12.1168 13.8166 11.4113 14.2916 10.6002 14.6416C9.78905 14.9916 8.92239 15.1666 8.00016 15.1666ZM8.00016 13.8333C9.48905 13.8333 10.7502 13.3166 11.7835 12.2833C12.8168 11.2499 13.3335 9.98881 13.3335 8.49992C13.3335 7.01103 12.8168 5.74992 11.7835 4.71659C10.7502 3.68325 9.48905 3.16659 8.00016 3.16659C6.51127 3.16659 5.25016 3.68325 4.21683 4.71659C3.1835 5.74992 2.66683 7.01103 2.66683 8.49992C2.66683 9.98881 3.1835 11.2499 4.21683 12.2833C5.25016 13.3166 6.51127 13.8333 8.00016 13.8333Z" fill="#1E854A"/>
</g>
</svg>
