<svg width="40" height="40" viewBox="0 0 40 40" fill="none" xmlns="http://www.w3.org/2000/svg">
<rect width="40" height="40" rx="20" fill="#EBFFF3"/>
<path d="M19.0666 21.2L17.6333 19.7666C17.511 19.6444 17.3555 19.5833 17.1666 19.5833C16.9777 19.5833 16.8221 19.6444 16.6999 19.7666C16.5777 19.8889 16.5166 20.0444 16.5166 20.2333C16.5166 20.4222 16.5777 20.5778 16.6999 20.7L18.5999 22.6C18.7333 22.7333 18.8888 22.8 19.0666 22.8C19.2444 22.8 19.3999 22.7333 19.5333 22.6L23.2999 18.8333C23.4221 18.7111 23.4833 18.5555 23.4833 18.3666C23.4833 18.1778 23.4221 18.0222 23.2999 17.9C23.1777 17.7778 23.0221 17.7166 22.8333 17.7166C22.6444 17.7166 22.4888 17.7778 22.3666 17.9L19.0666 21.2ZM19.9999 26.6666C19.0777 26.6666 18.211 26.4916 17.3999 26.1416C16.5888 25.7916 15.8833 25.3166 15.2833 24.7166C14.6833 24.1166 14.2083 23.4111 13.8583 22.6C13.5083 21.7889 13.3333 20.9222 13.3333 20C13.3333 19.0778 13.5083 18.2111 13.8583 17.4C14.2083 16.5889 14.6833 15.8833 15.2833 15.2833C15.8833 14.6833 16.5888 14.2083 17.3999 13.8583C18.211 13.5083 19.0777 13.3333 19.9999 13.3333C20.9221 13.3333 21.7888 13.5083 22.5999 13.8583C23.411 14.2083 24.1166 14.6833 24.7166 15.2833C25.3166 15.8833 25.7916 16.5889 26.1416 17.4C26.4916 18.2111 26.6666 19.0778 26.6666 20C26.6666 20.9222 26.4916 21.7889 26.1416 22.6C25.7916 23.4111 25.3166 24.1166 24.7166 24.7166C24.1166 25.3166 23.411 25.7916 22.5999 26.1416C21.7888 26.4916 20.9221 26.6666 19.9999 26.6666ZM19.9999 25.3333C21.4888 25.3333 22.7499 24.8166 23.7833 23.7833C24.8166 22.75 25.3333 21.4889 25.3333 20C25.3333 18.5111 24.8166 17.25 23.7833 16.2166C22.7499 15.1833 21.4888 14.6666 19.9999 14.6666C18.511 14.6666 17.2499 15.1833 16.2166 16.2166C15.1833 17.25 14.6666 18.5111 14.6666 20C14.6666 21.4889 15.1833 22.75 16.2166 23.7833C17.2499 24.8166 18.511 25.3333 19.9999 25.3333Z" fill="#1E854A"/>
</svg>
