<svg width="18" height="18" viewBox="0 0 18 18" fill="none" xmlns="http://www.w3.org/2000/svg">
<path d="M9 17.9999C6.48333 17.9999 4.35417 17.1291 2.6125 15.3874C0.870833 13.6457 0 11.5166 0 8.9999C0 6.6999 0.75 4.70407 2.25 3.0124C3.75 1.32074 5.66667 0.333236 8 0.0499023C8.41667 -9.76585e-05 8.74167 0.149902 8.975 0.499902C9.20833 0.849902 9.2 1.21657 8.95 1.5999C8.66667 2.03324 8.45417 2.49157 8.3125 2.9749C8.17083 3.45824 8.1 3.96657 8.1 4.4999C8.1 5.9999 8.625 7.2749 9.675 8.3249C10.725 9.3749 12 9.8999 13.5 9.8999C14.0167 9.8999 14.5292 9.8249 15.0375 9.6749C15.5458 9.5249 16 9.31657 16.4 9.0499C16.75 8.81657 17.1083 8.80407 17.475 9.0124C17.8417 9.22074 18 9.5499 17.95 9.9999C17.7167 12.2999 16.7375 14.2082 15.0125 15.7249C13.2875 17.2416 11.2833 17.9999 9 17.9999ZM9 15.9999C10.4667 15.9999 11.7833 15.5957 12.95 14.7874C14.1167 13.9791 14.9667 12.9249 15.5 11.6249C15.1667 11.7082 14.8333 11.7749 14.5 11.8249C14.1667 11.8749 13.8333 11.8999 13.5 11.8999C11.45 11.8999 9.70417 11.1791 8.2625 9.7374C6.82083 8.29574 6.1 6.5499 6.1 4.4999C6.1 4.16657 6.125 3.83324 6.175 3.4999C6.225 3.16657 6.29167 2.83324 6.375 2.4999C5.075 3.03324 4.02083 3.88324 3.2125 5.0499C2.40417 6.21657 2 7.53324 2 8.9999C2 10.9332 2.68333 12.5832 4.05 13.9499C5.41667 15.3166 7.06667 15.9999 9 15.9999Z" fill="#828282"/>
</svg>
