<svg width="140" height="140" viewBox="0 0 140 140" fill="none" xmlns="http://www.w3.org/2000/svg">
<rect x="0.5" y="0.5" width="139" height="139" rx="7.5" fill="#DCDCDC"/>
<path d="M120 70C120 42.45 97.55 20 70 20C42.45 20 20 42.45 20 70C20 84.5 26.25 97.55 36.15 106.7C36.15 106.75 36.15 106.75 36.1 106.8C36.6 107.3 37.2 107.7 37.7 108.15C38 108.4 38.25 108.65 38.55 108.85C39.45 109.6 40.45 110.3 41.4 111C41.75 111.25 42.05 111.45 42.4 111.7C43.35 112.35 44.35 112.95 45.4 113.5C45.75 113.7 46.15 113.95 46.5 114.15C47.5 114.7 48.55 115.2 49.65 115.65C50.05 115.85 50.45 116.05 50.85 116.2C51.95 116.65 53.05 117.05 54.15 117.4C54.55 117.55 54.95 117.7 55.35 117.8C56.55 118.15 57.75 118.45 58.95 118.75C59.3 118.85 59.65 118.95 60.05 119C61.45 119.3 62.85 119.5 64.3 119.65C64.5 119.65 64.7 119.7 64.9 119.75C66.6 119.9 68.3 120 70 120C71.7 120 73.4 119.9 75.05 119.75C75.25 119.75 75.45 119.7 75.65 119.65C77.1 119.5 78.5 119.3 79.9 119C80.25 118.95 80.6 118.8 81 118.75C82.2 118.45 83.45 118.2 84.6 117.8C85 117.65 85.4 117.5 85.8 117.4C86.9 117 88.05 116.65 89.1 116.2C89.5 116.05 89.9 115.85 90.3 115.65C91.35 115.2 92.4 114.7 93.45 114.15C93.85 113.95 94.2 113.7 94.55 113.5C95.55 112.9 96.55 112.35 97.55 111.7C97.9 111.5 98.2 111.25 98.55 111C99.55 110.3 100.5 109.6 101.4 108.85C101.7 108.6 101.95 108.35 102.25 108.15C102.8 107.7 103.35 107.25 103.85 106.8C103.85 106.75 103.85 106.75 103.8 106.7C113.75 97.55 120 84.5 120 70ZM94.7 94.85C81.15 85.75 58.95 85.75 45.3 94.85C43.1 96.3 41.3 98 39.8 99.85C32.2 92.15 27.5 81.6 27.5 70C27.5 46.55 46.55 27.5 70 27.5C93.45 27.5 112.5 46.55 112.5 70C112.5 81.6 107.8 92.15 100.2 99.85C98.75 98 96.9 96.3 94.7 94.85Z" fill="#292D32" fill-opacity="0.5"/>
<path d="M70 44.6499C59.65 44.6499 51.25 53.0499 51.25 63.3999C51.25 73.5499 59.2 81.7999 69.75 82.0999C69.9 82.0999 70.1 82.0999 70.2 82.0999C70.3 82.0999 70.45 82.0999 70.55 82.0999C70.6 82.0999 70.65 82.0999 70.65 82.0999C80.75 81.7499 88.7 73.5499 88.75 63.3999C88.75 53.0499 80.35 44.6499 70 44.6499Z" fill="#292D32" fill-opacity="0.5"/>
<rect x="0.5" y="0.5" width="139" height="139" rx="7.5" stroke="#1F1F1F"/>
</svg>
