<svg width="22" height="21" viewBox="0 0 22 21" fill="none" xmlns="http://www.w3.org/2000/svg">
<path id="Vector" d="M3.30048 17.6998L10.3505 15.1998L5.80048 10.6498L3.30048 17.6998ZM21.0255 6.02481C20.8755 6.17481 20.7005 6.2498 20.5005 6.2498C20.3005 6.2498 20.1255 6.17481 19.9755 6.02481L19.9005 5.94981C19.6671 5.71647 19.3755 5.5998 19.0255 5.5998C18.6755 5.5998 18.3838 5.71647 18.1505 5.94981L13.0755 11.0248C12.9255 11.1748 12.7505 11.2498 12.5505 11.2498C12.3505 11.2498 12.1755 11.1748 12.0255 11.0248C11.8755 10.8748 11.8005 10.6998 11.8005 10.4998C11.8005 10.2998 11.8755 10.1248 12.0255 9.97481L17.1005 4.89981C17.6338 4.36647 18.2755 4.0998 19.0255 4.0998C19.7755 4.0998 20.4171 4.36647 20.9505 4.89981L21.0255 4.9748C21.1755 5.1248 21.2505 5.29981 21.2505 5.4998C21.2505 5.69981 21.1755 5.8748 21.0255 6.02481ZM7.97548 3.0248C8.12548 2.8748 8.30048 2.7998 8.50048 2.7998C8.70048 2.7998 8.87548 2.8748 9.02548 3.0248L9.15048 3.1498C9.68382 3.68314 9.95048 4.31647 9.95048 5.04981C9.95048 5.78314 9.68382 6.41647 9.15048 6.94981L9.07548 7.02481C8.92548 7.17481 8.75048 7.24981 8.55048 7.24981C8.35048 7.24981 8.17548 7.17481 8.02548 7.02481C7.87548 6.87481 7.80048 6.69981 7.80048 6.4998C7.80048 6.29981 7.87548 6.1248 8.02548 5.97481L8.10048 5.89981C8.33382 5.66647 8.45048 5.38314 8.45048 5.04981C8.45048 4.71647 8.33382 4.43314 8.10048 4.19981L7.97548 4.07481C7.82548 3.9248 7.75048 3.7498 7.75048 3.5498C7.75048 3.3498 7.82548 3.1748 7.97548 3.0248ZM12.0255 1.0248C12.1755 0.874805 12.3505 0.799805 12.5505 0.799805C12.7505 0.799805 12.9255 0.874805 13.0755 1.0248L14.1505 2.0998C14.6838 2.63314 14.9505 3.2748 14.9505 4.02481C14.9505 4.77481 14.6838 5.41647 14.1505 5.94981L11.0755 9.02481C10.9255 9.17481 10.7505 9.24981 10.5505 9.24981C10.3505 9.24981 10.1755 9.17481 10.0255 9.02481C9.87548 8.87481 9.80048 8.69981 9.80048 8.49981C9.80048 8.29981 9.87548 8.12481 10.0255 7.97481L13.1005 4.89981C13.3338 4.66647 13.4505 4.3748 13.4505 4.02481C13.4505 3.6748 13.3338 3.38314 13.1005 3.1498L12.0255 2.0748C11.8755 1.9248 11.8005 1.7498 11.8005 1.5498C11.8005 1.3498 11.8755 1.1748 12.0255 1.0248ZM20.0255 13.0248C19.8755 13.1748 19.7005 13.2498 19.5005 13.2498C19.3005 13.2498 19.1255 13.1748 18.9755 13.0248L17.9005 11.9498C17.6671 11.7165 17.3755 11.5998 17.0255 11.5998C16.6755 11.5998 16.3838 11.7165 16.1505 11.9498L15.0755 13.0248C14.9255 13.1748 14.7505 13.2498 14.5505 13.2498C14.3505 13.2498 14.1755 13.1748 14.0255 13.0248C13.8755 12.8748 13.8005 12.6998 13.8005 12.4998C13.8005 12.2998 13.8755 12.1248 14.0255 11.9748L15.1005 10.8998C15.6338 10.3665 16.2755 10.0998 17.0255 10.0998C17.7755 10.0998 18.4171 10.3665 18.9505 10.8998L20.0255 11.9748C20.1755 12.1248 20.2505 12.2998 20.2505 12.4998C20.2505 12.6998 20.1755 12.8748 20.0255 13.0248ZM0.700483 18.9998L4.47548 8.49981C4.55882 8.28314 4.68798 8.11647 4.86298 7.99981C5.03798 7.88314 5.22548 7.82481 5.42548 7.82481C5.55882 7.82481 5.68382 7.84981 5.80048 7.89981C5.91715 7.94981 6.02548 8.02481 6.12548 8.12481L12.8755 14.8748C12.9755 14.9748 13.0505 15.0831 13.1005 15.1998C13.1505 15.3165 13.1755 15.4415 13.1755 15.5748C13.1755 15.7748 13.1171 15.9623 13.0005 16.1373C12.8838 16.3123 12.7171 16.4415 12.5005 16.5248L2.00048 20.2998C1.80048 20.3831 1.60882 20.3956 1.42548 20.3373C1.24215 20.279 1.08382 20.1831 0.950483 20.0498C0.817149 19.9165 0.721316 19.7581 0.662983 19.5748C0.604649 19.3915 0.617149 19.1998 0.700483 18.9998Z" fill="#DC0019"/>
</svg>
