<svg width="20" height="21" viewBox="0 0 20 21" fill="none" xmlns="http://www.w3.org/2000/svg">
<path d="M3.33366 17.1668C2.87533 17.1668 2.48296 17.0036 2.15658 16.6772C1.83019 16.3509 1.66699 15.9585 1.66699 15.5002V5.50016C1.66699 5.04183 1.83019 4.64947 2.15658 4.32308C2.48296 3.99669 2.87533 3.8335 3.33366 3.8335H16.667C17.1253 3.8335 17.5177 3.99669 17.8441 4.32308C18.1705 4.64947 18.3337 5.04183 18.3337 5.50016V15.5002C18.3337 15.9585 18.1705 16.3509 17.8441 16.6772C17.5177 17.0036 17.1253 17.1668 16.667 17.1668H3.33366ZM16.667 7.16683L10.4378 11.0627C10.3684 11.1043 10.2955 11.1356 10.2191 11.1564C10.1427 11.1772 10.0698 11.1877 10.0003 11.1877C9.93088 11.1877 9.85797 11.1772 9.78158 11.1564C9.70519 11.1356 9.63227 11.1043 9.56283 11.0627L3.33366 7.16683V15.5002H16.667V7.16683ZM10.0003 9.66683L16.667 5.50016H3.33366L10.0003 9.66683ZM3.33366 7.37516V6.146V6.16683V6.15641V7.37516Z" fill="#828282"/>
</svg>
