<svg width="16" height="17" viewBox="0 0 16 17" fill="none" xmlns="http://www.w3.org/2000/svg">
<g id="Icon/error_FILL0_wght400_GRAD0_opsz24 1">
<path id="Vector" d="M8.00016 11.8333C8.18905 11.8333 8.34739 11.7694 8.47516 11.6416C8.60294 11.5138 8.66683 11.3555 8.66683 11.1666C8.66683 10.9777 8.60294 10.8194 8.47516 10.6916C8.34739 10.5638 8.18905 10.4999 8.00016 10.4999C7.81127 10.4999 7.65294 10.5638 7.52516 10.6916C7.39739 10.8194 7.3335 10.9777 7.3335 11.1666C7.3335 11.3555 7.39739 11.5138 7.52516 11.6416C7.65294 11.7694 7.81127 11.8333 8.00016 11.8333ZM8.00016 9.16659C8.18905 9.16659 8.34739 9.1027 8.47516 8.97492C8.60294 8.84714 8.66683 8.68881 8.66683 8.49992V5.83325C8.66683 5.64436 8.60294 5.48603 8.47516 5.35825C8.34739 5.23047 8.18905 5.16659 8.00016 5.16659C7.81127 5.16659 7.65294 5.23047 7.52516 5.35825C7.39739 5.48603 7.3335 5.64436 7.3335 5.83325V8.49992C7.3335 8.68881 7.39739 8.84714 7.52516 8.97492C7.65294 9.1027 7.81127 9.16659 8.00016 9.16659ZM8.00016 15.1666C7.07794 15.1666 6.21127 14.9916 5.40016 14.6416C4.58905 14.2916 3.8835 13.8166 3.2835 13.2166C2.6835 12.6166 2.2085 11.911 1.8585 11.0999C1.5085 10.2888 1.3335 9.42214 1.3335 8.49992C1.3335 7.5777 1.5085 6.71103 1.8585 5.89992C2.2085 5.08881 2.6835 4.38325 3.2835 3.78325C3.8835 3.18325 4.58905 2.70825 5.40016 2.35825C6.21127 2.00825 7.07794 1.83325 8.00016 1.83325C8.92239 1.83325 9.78905 2.00825 10.6002 2.35825C11.4113 2.70825 12.1168 3.18325 12.7168 3.78325C13.3168 4.38325 13.7918 5.08881 14.1418 5.89992C14.4918 6.71103 14.6668 7.5777 14.6668 8.49992C14.6668 9.42214 14.4918 10.2888 14.1418 11.0999C13.7918 11.911 13.3168 12.6166 12.7168 13.2166C12.1168 13.8166 11.4113 14.2916 10.6002 14.6416C9.78905 14.9916 8.92239 15.1666 8.00016 15.1666ZM8.00016 13.8333C9.48905 13.8333 10.7502 13.3166 11.7835 12.2833C12.8168 11.2499 13.3335 9.98881 13.3335 8.49992C13.3335 7.01103 12.8168 5.74992 11.7835 4.71659C10.7502 3.68325 9.48905 3.16659 8.00016 3.16659C6.51127 3.16659 5.25016 3.68325 4.21683 4.71659C3.1835 5.74992 2.66683 7.01103 2.66683 8.49992C2.66683 9.98881 3.1835 11.2499 4.21683 12.2833C5.25016 13.3166 6.51127 13.8333 8.00016 13.8333Z" fill="#E62929"/>
</g>
</svg>
