<svg width="16" height="17" viewBox="0 0 16 17" fill="none" xmlns="http://www.w3.org/2000/svg">
<g id="Icon/hourglass">
<path id="Vector" d="M5.33317 13.8333H10.6665V11.8333C10.6665 11.0999 10.4054 10.4721 9.88317 9.94992C9.36095 9.4277 8.73317 9.16659 7.99984 9.16659C7.2665 9.16659 6.63873 9.4277 6.1165 9.94992C5.59428 10.4721 5.33317 11.0999 5.33317 11.8333V13.8333ZM12.6665 15.1666H3.33317C3.14428 15.1666 2.98595 15.1027 2.85817 14.9749C2.73039 14.8471 2.6665 14.6888 2.6665 14.4999C2.6665 14.311 2.73039 14.1527 2.85817 14.0249C2.98595 13.8971 3.14428 13.8333 3.33317 13.8333H3.99984V11.8333C3.99984 11.1555 4.15817 10.5194 4.47484 9.92492C4.7915 9.33047 5.23317 8.85547 5.79984 8.49992C5.23317 8.14436 4.7915 7.66936 4.47484 7.07492C4.15817 6.48047 3.99984 5.84436 3.99984 5.16659V3.16659H3.33317C3.14428 3.16659 2.98595 3.1027 2.85817 2.97492C2.73039 2.84714 2.6665 2.68881 2.6665 2.49992C2.6665 2.31103 2.73039 2.1527 2.85817 2.02492C2.98595 1.89714 3.14428 1.83325 3.33317 1.83325H12.6665C12.8554 1.83325 13.0137 1.89714 13.1415 2.02492C13.2693 2.1527 13.3332 2.31103 13.3332 2.49992C13.3332 2.68881 13.2693 2.84714 13.1415 2.97492C13.0137 3.1027 12.8554 3.16659 12.6665 3.16659H11.9998V5.16659C11.9998 5.84436 11.8415 6.48047 11.5248 7.07492C11.2082 7.66936 10.7665 8.14436 10.1998 8.49992C10.7665 8.85547 11.2082 9.33047 11.5248 9.92492C11.8415 10.5194 11.9998 11.1555 11.9998 11.8333V13.8333H12.6665C12.8554 13.8333 13.0137 13.8971 13.1415 14.0249C13.2693 14.1527 13.3332 14.311 13.3332 14.4999C13.3332 14.6888 13.2693 14.8471 13.1415 14.9749C13.0137 15.1027 12.8554 15.1666 12.6665 15.1666Z" fill="#CDA11E"/>
</g>
</svg>
