<svg width="24" height="25" viewBox="0 0 24 25" fill="none" xmlns="http://www.w3.org/2000/svg">
<g id="lock_FILL0_wght400_GRAD0_opsz24 1">
<path id="Vector" d="M6 22.7368C5.45 22.7368 4.97917 22.541 4.5875 22.1493C4.19583 21.7577 4 21.2868 4 20.7368V10.7368C4 10.1868 4.19583 9.71598 4.5875 9.32432C4.97917 8.93265 5.45 8.73682 6 8.73682H7V6.73682C7 5.35348 7.4875 4.17432 8.4625 3.19932C9.4375 2.22432 10.6167 1.73682 12 1.73682C13.3833 1.73682 14.5625 2.22432 15.5375 3.19932C16.5125 4.17432 17 5.35348 17 6.73682V8.73682H18C18.55 8.73682 19.0208 8.93265 19.4125 9.32432C19.8042 9.71598 20 10.1868 20 10.7368V20.7368C20 21.2868 19.8042 21.7577 19.4125 22.1493C19.0208 22.541 18.55 22.7368 18 22.7368H6ZM6 20.7368H18V10.7368H6V20.7368ZM12 17.7368C12.55 17.7368 13.0208 17.541 13.4125 17.1493C13.8042 16.7577 14 16.2868 14 15.7368C14 15.1868 13.8042 14.716 13.4125 14.3243C13.0208 13.9326 12.55 13.7368 12 13.7368C11.45 13.7368 10.9792 13.9326 10.5875 14.3243C10.1958 14.716 10 15.1868 10 15.7368C10 16.2868 10.1958 16.7577 10.5875 17.1493C10.9792 17.541 11.45 17.7368 12 17.7368ZM9 8.73682H15V6.73682C15 5.90348 14.7083 5.19515 14.125 4.61182C13.5417 4.02848 12.8333 3.73682 12 3.73682C11.1667 3.73682 10.4583 4.02848 9.875 4.61182C9.29167 5.19515 9 5.90348 9 6.73682V8.73682Z" fill="#828282"/>
</g>
</svg>
