<svg width="12" height="14" viewBox="0 0 12 14" fill="none" xmlns="http://www.w3.org/2000/svg">
<path d="M4.00008 7.66665H5.33341V5.83331H6.66675V7.66665H8.00008V4.49998L6.00008 3.16665L4.00008 4.49998V7.66665ZM6.00008 11.9C7.35564 10.6555 8.36119 9.52498 9.01675 8.50831C9.6723 7.49165 10.0001 6.58887 10.0001 5.79998C10.0001 4.58887 9.61397 3.5972 8.84175 2.82498C8.06953 2.05276 7.1223 1.66665 6.00008 1.66665C4.87786 1.66665 3.93064 2.05276 3.15841 2.82498C2.38619 3.5972 2.00008 4.58887 2.00008 5.79998C2.00008 6.58887 2.32786 7.49165 2.98341 8.50831C3.63897 9.52498 4.64453 10.6555 6.00008 11.9ZM6.00008 13.2166C5.84453 13.2166 5.68897 13.1889 5.53341 13.1333C5.37786 13.0778 5.23897 12.9944 5.11675 12.8833C4.39453 12.2166 3.75564 11.5666 3.20008 10.9333C2.64453 10.3 2.18064 9.68609 1.80841 9.09165C1.43619 8.4972 1.15286 7.92498 0.958415 7.37498C0.76397 6.82498 0.666748 6.29998 0.666748 5.79998C0.666748 4.13331 1.20286 2.80554 2.27508 1.81665C3.3473 0.827757 4.58897 0.333313 6.00008 0.333313C7.41119 0.333313 8.65286 0.827757 9.72508 1.81665C10.7973 2.80554 11.3334 4.13331 11.3334 5.79998C11.3334 6.29998 11.2362 6.82498 11.0417 7.37498C10.8473 7.92498 10.564 8.4972 10.1917 9.09165C9.81953 9.68609 9.35564 10.3 8.80008 10.9333C8.24453 11.5666 7.60564 12.2166 6.88341 12.8833C6.76119 12.9944 6.6223 13.0778 6.46675 13.1333C6.31119 13.1889 6.15564 13.2166 6.00008 13.2166Z" fill="#828282"/>
</svg>
