<svg width="18" height="17" viewBox="0 0 18 17" fill="none" xmlns="http://www.w3.org/2000/svg">
<path id="Vector" d="M4.00033 13.6665C3.76421 13.6665 3.5663 13.5866 3.40658 13.4269C3.24685 13.2672 3.16699 13.0693 3.16699 12.8332V8.64567C3.16699 8.40956 3.24685 8.21512 3.40658 8.06234C3.5663 7.90956 3.76421 7.83317 4.00033 7.83317C4.23644 7.83317 4.43435 7.91303 4.59408 8.07275C4.7538 8.23248 4.83366 8.43039 4.83366 8.6665V12.854C4.83366 13.0901 4.7538 13.2846 4.59408 13.4373C4.43435 13.5901 4.23644 13.6665 4.00033 13.6665ZM9.00033 13.6665C8.76422 13.6665 8.5663 13.5866 8.40658 13.4269C8.24685 13.2672 8.16699 13.0693 8.16699 12.8332V8.64567C8.16699 8.40956 8.24685 8.21512 8.40658 8.06234C8.5663 7.90956 8.76422 7.83317 9.00033 7.83317C9.23644 7.83317 9.43435 7.91303 9.59408 8.07275C9.7538 8.23248 9.83366 8.43039 9.83366 8.6665V12.854C9.83366 13.0901 9.7538 13.2846 9.59408 13.4373C9.43435 13.5901 9.23644 13.6665 9.00033 13.6665ZM1.47949 16.9998C1.24338 16.9998 1.04894 16.92 0.896159 16.7603C0.743381 16.6005 0.666992 16.4026 0.666992 16.1665C0.666992 15.9304 0.746853 15.7325 0.906576 15.5728C1.0663 15.413 1.26421 15.3332 1.50033 15.3332H16.5212C16.7573 15.3332 16.9517 15.413 17.1045 15.5728C17.2573 15.7325 17.3337 15.9304 17.3337 16.1665C17.3337 16.4026 17.2538 16.6005 17.0941 16.7603C16.9344 16.92 16.7364 16.9998 16.5003 16.9998H1.47949ZM14.0003 13.6665C13.7642 13.6665 13.5663 13.5866 13.4066 13.4269C13.2469 13.2672 13.167 13.0693 13.167 12.8332V8.64567C13.167 8.40956 13.2469 8.21512 13.4066 8.06234C13.5663 7.90956 13.7642 7.83317 14.0003 7.83317C14.2364 7.83317 14.4344 7.91303 14.5941 8.07275C14.7538 8.23248 14.8337 8.43039 14.8337 8.6665V12.854C14.8337 13.0901 14.7538 13.2846 14.5941 13.4373C14.4344 13.5901 14.2364 13.6665 14.0003 13.6665ZM9.75033 0.708171L16.7712 4.20817C16.9517 4.30539 17.0906 4.44081 17.1878 4.61442C17.285 4.78803 17.3337 4.979 17.3337 5.18734C17.3337 5.46512 17.233 5.69775 17.0316 5.88525C16.8302 6.07275 16.5906 6.1665 16.3128 6.1665H1.70866C1.43088 6.1665 1.18783 6.07275 0.979492 5.88525C0.771159 5.69775 0.666992 5.46512 0.666992 5.18734C0.666992 4.979 0.712131 4.78803 0.802409 4.61442C0.892687 4.44081 1.03505 4.31234 1.22949 4.229L8.25033 0.708171C8.48644 0.597059 8.73644 0.541504 9.00033 0.541504C9.26422 0.541504 9.51422 0.597059 9.75033 0.708171ZM4.37533 4.49984H13.6253L9.00033 2.20817L4.37533 4.49984Z" fill="#828282"/>
</svg>
