<svg width="40" height="40" viewBox="0 0 40 40" fill="none" xmlns="http://www.w3.org/2000/svg">
<rect width="40" height="40" rx="20" fill="#FFEFD6"/>
<path d="M17.3334 25.3333H22.6667V23.3333C22.6667 22.6 22.4056 21.9722 21.8834 21.45C21.3612 20.9278 20.7334 20.6666 20.0001 20.6666C19.2667 20.6666 18.639 20.9278 18.1167 21.45C17.5945 21.9722 17.3334 22.6 17.3334 23.3333V25.3333ZM24.6667 26.6666H15.3334C15.1445 26.6666 14.9862 26.6028 14.8584 26.475C14.7306 26.3472 14.6667 26.1889 14.6667 26C14.6667 25.8111 14.7306 25.6528 14.8584 25.525C14.9862 25.3972 15.1445 25.3333 15.3334 25.3333H16.0001V23.3333C16.0001 22.6555 16.1584 22.0194 16.4751 21.425C16.7917 20.8305 17.2334 20.3555 17.8001 20C17.2334 19.6444 16.7917 19.1694 16.4751 18.575C16.1584 17.9805 16.0001 17.3444 16.0001 16.6666V14.6666H15.3334C15.1445 14.6666 14.9862 14.6028 14.8584 14.475C14.7306 14.3472 14.6667 14.1889 14.6667 14C14.6667 13.8111 14.7306 13.6528 14.8584 13.525C14.9862 13.3972 15.1445 13.3333 15.3334 13.3333H24.6667C24.8556 13.3333 25.014 13.3972 25.1417 13.525C25.2695 13.6528 25.3334 13.8111 25.3334 14C25.3334 14.1889 25.2695 14.3472 25.1417 14.475C25.014 14.6028 24.8556 14.6666 24.6667 14.6666H24.0001V16.6666C24.0001 17.3444 23.8417 17.9805 23.5251 18.575C23.2084 19.1694 22.7667 19.6444 22.2001 20C22.7667 20.3555 23.2084 20.8305 23.5251 21.425C23.8417 22.0194 24.0001 22.6555 24.0001 23.3333V25.3333H24.6667C24.8556 25.3333 25.014 25.3972 25.1417 25.525C25.2695 25.6528 25.3334 25.8111 25.3334 26C25.3334 26.1889 25.2695 26.3472 25.1417 26.475C25.014 26.6028 24.8556 26.6666 24.6667 26.6666Z" fill="#A86500"/>
</svg>
