<svg width="44" height="44" viewBox="0 0 44 44" fill="none" xmlns="http://www.w3.org/2000/svg">
<rect width="44" height="44" rx="8" fill="#FFF1DD" fill-opacity="0.5"/>
<path d="M18.5703 25.27L25.1103 18.73" stroke="#E68900" stroke-width="1.5" stroke-linecap="round" stroke-linejoin="round"/>
<path d="M18.98 20.3701C19.6593 20.3701 20.21 19.8195 20.21 19.1402C20.21 18.4609 19.6593 17.9102 18.98 17.9102C18.3007 17.9102 17.75 18.4609 17.75 19.1402C17.75 19.8195 18.3007 20.3701 18.98 20.3701Z" stroke="#E68900" stroke-width="1.5" stroke-linecap="round" stroke-linejoin="round"/>
<path d="M25.52 26.0899C26.1993 26.0899 26.75 25.5392 26.75 24.8599C26.75 24.1806 26.1993 23.6299 25.52 23.6299C24.8407 23.6299 24.29 24.1806 24.29 24.8599C24.29 25.5392 24.8407 26.0899 25.52 26.0899Z" stroke="#E68900" stroke-width="1.5" stroke-linecap="round" stroke-linejoin="round"/>
<path d="M22 32C27.5228 32 32 27.5228 32 22C32 16.4772 27.5228 12 22 12C16.4772 12 12 16.4772 12 22C12 27.5228 16.4772 32 22 32Z" stroke="#E68900" stroke-width="1.5" stroke-linecap="round" stroke-linejoin="round"/>
</svg>
