<svg width="48" height="48" viewBox="0 0 48 48" fill="none" xmlns="http://www.w3.org/2000/svg">
<rect width="48" height="48" rx="24" fill="#FFEFD6"/>
<path d="M16.2249 33C16.1583 33 16.0958 32.9875 16.0374 32.9625C15.9791 32.9375 15.9249 32.9 15.8749 32.85L14.8749 31.85C14.7083 31.6833 14.6666 31.5 14.7499 31.3C14.8333 31.1 14.9916 31 15.2249 31H32.8249C33.0583 31 33.2166 31.1 33.2999 31.3C33.3833 31.5 33.3416 31.6833 33.1749 31.85L32.1749 32.85C32.1249 32.9 32.0708 32.9375 32.0124 32.9625C31.9541 32.9875 31.8916 33 31.8249 33H16.2249ZM15.0249 30C15.1249 29.7 15.2583 29.4167 15.4249 29.15C15.5916 28.8833 15.7916 28.6333 16.0249 28.4V21H15.7749C15.5583 21 15.3791 20.9292 15.2374 20.7875C15.0958 20.6458 15.0249 20.4667 15.0249 20.25C15.0249 20.0333 15.0958 19.8542 15.2374 19.7125C15.3791 19.5708 15.5583 19.5 15.7749 19.5H16.0249V18.75H15.7749C15.5583 18.75 15.3791 18.6792 15.2374 18.5375C15.0958 18.3958 15.0249 18.2167 15.0249 18C15.0249 17.7833 15.0958 17.6042 15.2374 17.4625C15.3791 17.3208 15.5583 17.25 15.7749 17.25H16.0249V16.5H15.7749C15.5583 16.5 15.3791 16.4292 15.2374 16.2875C15.0958 16.1458 15.0249 15.9667 15.0249 15.75C15.0249 15.5333 15.0958 15.3542 15.2374 15.2125C15.3791 15.0708 15.5583 15 15.7749 15H21.7749C22.4083 15 22.9416 15.2167 23.3749 15.65C23.8083 16.0833 24.0249 16.6167 24.0249 17.25H32.2749C32.4916 17.25 32.6708 17.3208 32.8124 17.4625C32.9541 17.6042 33.0249 17.7833 33.0249 18C33.0249 18.2167 32.9541 18.3958 32.8124 18.5375C32.6708 18.6792 32.4916 18.75 32.2749 18.75H24.0249C24.0249 19.3833 23.8083 19.9167 23.3749 20.35C22.9416 20.7833 22.4083 21 21.7749 21H20.0249V27.1C20.2749 27.1333 20.5124 27.1833 20.7374 27.25C20.9624 27.3167 21.1749 27.4167 21.3749 27.55C21.7749 26.5167 22.4374 25.6667 23.3624 25C24.2874 24.3333 25.3416 24 26.5249 24C28.1416 24 29.4916 24.5917 30.5749 25.775C31.6583 26.9583 32.1249 28.3667 31.9749 30H15.0249ZM23.3749 28H29.6749C29.3749 27.3667 28.9499 26.875 28.3999 26.525C27.8499 26.175 27.2249 26 26.5249 26C25.8416 26 25.2166 26.1833 24.6499 26.55C24.0833 26.9167 23.6583 27.4 23.3749 28ZM20.0249 17.25H22.0249V16.5H20.0249V17.25ZM20.0249 19.5H22.0249V18.75H20.0249V19.5ZM17.5249 17.25H18.5249V16.5H17.5249V17.25ZM17.5249 19.5H18.5249V18.75H17.5249V19.5ZM17.5249 27.35C17.6749 27.2667 17.8333 27.2042 17.9999 27.1625C18.1666 27.1208 18.3416 27.0833 18.5249 27.05V21H17.5249V27.35Z" fill="#A86500"/>
</svg>
