<svg width="20" height="21" viewBox="0 0 20 21" fill="none" xmlns="http://www.w3.org/2000/svg">
<path d="M16.25 2.375H13.125C12.9592 2.375 12.8002 2.44085 12.683 2.55806C12.5658 2.67527 12.5 2.83424 12.5 3C12.5 3.16576 12.5658 3.32473 12.683 3.44194C12.8002 3.55915 12.9592 3.625 13.125 3.625H14.7414L12.7765 5.58984C12.1996 5.05218 11.5037 4.65861 10.7456 4.44128C9.98747 4.22396 9.18872 4.18903 8.41455 4.33936C7.64038 4.4897 6.91275 4.82102 6.29109 5.30628C5.66943 5.79154 5.17137 6.41696 4.83759 7.13148C4.50381 7.84599 4.34378 8.62932 4.37056 9.4175C4.39735 10.2057 4.61019 10.9763 4.9917 11.6665C5.37322 12.3567 5.91259 12.9469 6.56576 13.3888C7.21893 13.8308 7.96737 14.1119 8.74996 14.2094V15.5H6.87496C6.7092 15.5 6.55023 15.5658 6.43302 15.6831C6.31581 15.8003 6.24996 15.9592 6.24996 16.125C6.24996 16.2908 6.31581 16.4497 6.43302 16.5669C6.55023 16.6842 6.7092 16.75 6.87496 16.75H8.74996V18.625C8.74996 18.7908 8.81581 18.9497 8.93302 19.0669C9.05023 19.1842 9.2092 19.25 9.37496 19.25C9.54072 19.25 9.69969 19.1842 9.8169 19.0669C9.93411 18.9497 9.99996 18.7908 9.99996 18.625V16.75H11.875C12.0407 16.75 12.1997 16.6842 12.3169 16.5669C12.4341 16.4497 12.5 16.2908 12.5 16.125C12.5 15.9592 12.4341 15.8003 12.3169 15.6831C12.1997 15.5658 12.0407 15.5 11.875 15.5H9.99996V14.2094C10.8377 14.1047 11.6353 13.7894 12.3181 13.2928C13.0009 12.7963 13.5466 12.1347 13.9043 11.37C14.262 10.6052 14.42 9.76228 14.3635 8.9199C14.307 8.07753 14.0379 7.26324 13.5812 6.55313L15.625 4.50859V6.125C15.625 6.29076 15.6908 6.44973 15.808 6.56694C15.9252 6.68415 16.0842 6.75 16.25 6.75C16.4157 6.75 16.5747 6.68415 16.6919 6.56694C16.8091 6.44973 16.875 6.29076 16.875 6.125V3C16.875 2.83424 16.8091 2.67527 16.6919 2.55806C16.5747 2.44085 16.4157 2.375 16.25 2.375ZM9.37496 13C8.63328 13 7.90826 12.7801 7.29157 12.368C6.67489 11.956 6.19424 11.3703 5.91041 10.6851C5.62658 9.99984 5.55232 9.24584 5.69702 8.51841C5.84171 7.79098 6.19886 7.1228 6.72331 6.59835C7.24776 6.0739 7.91594 5.71675 8.64337 5.57206C9.3708 5.42736 10.1248 5.50162 10.81 5.78545C11.4952 6.06928 12.0809 6.54993 12.493 7.16661C12.905 7.7833 13.125 8.50832 13.125 9.25C13.1239 10.2442 12.7285 11.1975 12.0255 11.9005C11.3224 12.6035 10.3692 12.999 9.37496 13Z" fill="#828282"/>
</svg>
