<svg width="20" height="21" viewBox="0 0 20 21" fill="none" xmlns="http://www.w3.org/2000/svg">
<path d="M10.0002 11.3333C9.18072 11.3333 8.48975 11.0521 7.92725 10.4896C7.36475 9.92707 7.0835 9.2361 7.0835 8.41666C7.0835 7.59721 7.36475 6.90624 7.92725 6.34374C8.48975 5.78124 9.18072 5.49999 10.0002 5.49999C10.8196 5.49999 11.5106 5.78124 12.0731 6.34374C12.6356 6.90624 12.9168 7.59721 12.9168 8.41666C12.9168 9.2361 12.6356 9.92707 12.0731 10.4896C11.5106 11.0521 10.8196 11.3333 10.0002 11.3333ZM10.0002 9.66666C10.3613 9.66666 10.6599 9.5486 10.896 9.31249C11.1321 9.07638 11.2502 8.77777 11.2502 8.41666C11.2502 8.05555 11.1321 7.75693 10.896 7.52082C10.6599 7.28471 10.3613 7.16666 10.0002 7.16666C9.63905 7.16666 9.34044 7.28471 9.10433 7.52082C8.86822 7.75693 8.75016 8.05555 8.75016 8.41666C8.75016 8.77777 8.86822 9.07638 9.10433 9.31249C9.34044 9.5486 9.63905 9.66666 10.0002 9.66666ZM10.0002 3.93749L5.00016 5.81249V9.74999C5.00016 10.5 5.10433 11.2292 5.31266 11.9375C5.521 12.6458 5.80572 13.3125 6.16683 13.9375C6.75016 13.6458 7.36127 13.4167 8.00016 13.25C8.63905 13.0833 9.30572 13 10.0002 13C10.6946 13 11.3613 13.0833 12.0002 13.25C12.6391 13.4167 13.2502 13.6458 13.8335 13.9375C14.1946 13.3125 14.4793 12.6458 14.6877 11.9375C14.896 11.2292 15.0002 10.5 15.0002 9.74999V5.81249L10.0002 3.93749ZM10.0002 14.6667C9.50016 14.6667 9.01405 14.7222 8.54183 14.8333C8.06961 14.9444 7.61822 15.0972 7.18766 15.2917C7.59044 15.7083 8.02794 16.0694 8.50016 16.375C8.97238 16.6805 9.47238 16.9167 10.0002 17.0833C10.5279 16.9167 11.0279 16.6805 11.5002 16.375C11.9724 16.0694 12.4099 15.7083 12.8127 15.2917C12.3821 15.0972 11.9307 14.9444 11.4585 14.8333C10.9863 14.7222 10.5002 14.6667 10.0002 14.6667ZM10.0002 18.75C9.90294 18.75 9.81266 18.743 9.72933 18.7292C9.646 18.7153 9.56266 18.6944 9.47933 18.6667C7.60433 18.0417 6.11127 16.8854 5.00016 15.1979C3.88905 13.5104 3.3335 11.6944 3.3335 9.74999V5.81249C3.3335 5.46527 3.43419 5.15277 3.63558 4.87499C3.83697 4.59721 4.09738 4.39582 4.41683 4.27082L9.41683 2.39582C9.61127 2.32638 9.80572 2.29166 10.0002 2.29166C10.1946 2.29166 10.3891 2.32638 10.5835 2.39582L15.5835 4.27082C15.9029 4.39582 16.1634 4.59721 16.3647 4.87499C16.5661 5.15277 16.6668 5.46527 16.6668 5.81249V9.74999C16.6668 11.6944 16.1113 13.5104 15.0002 15.1979C13.8891 16.8854 12.396 18.0417 10.521 18.6667C10.4377 18.6944 10.3543 18.7153 10.271 18.7292C10.1877 18.743 10.0974 18.75 10.0002 18.75Z" fill="#828282"/>
</svg>
