<svg width="24" height="25" viewBox="0 0 24 25" fill="none" xmlns="http://www.w3.org/2000/svg">
<path d="M12 12.7118C10.9 12.7118 10 12.3618 9.3 11.6618C8.6 10.9618 8.25 10.0618 8.25 8.96179C8.25 7.86179 8.6 6.96179 9.3 6.26179C10 5.56179 10.9 5.21179 12 5.21179C13.1 5.21179 14 5.56179 14.7 6.26179C15.4 6.96179 15.75 7.86179 15.75 8.96179C15.75 10.0618 15.4 10.9618 14.7 11.6618C14 12.3618 13.1 12.7118 12 12.7118ZM18.5 20.7368H5.5C5.0875 20.7368 4.73438 20.5899 4.44063 20.2962C4.14688 20.0024 4 19.6493 4 19.2368V18.3868C4 17.7535 4.15833 17.2118 4.475 16.7618C4.79167 16.3118 5.2 15.9701 5.7 15.7368C6.81667 15.2368 7.8875 14.8618 8.9125 14.6118C9.9375 14.3618 10.9667 14.2368 12 14.2368C13.0333 14.2368 14.0583 14.366 15.075 14.6243C16.0917 14.8826 17.1577 15.2551 18.273 15.7416C18.7947 15.9771 19.213 16.3185 19.5278 16.7658C19.8426 17.2131 20 17.7535 20 18.3868V19.2368C20 19.6493 19.8531 20.0024 19.5594 20.2962C19.2656 20.5899 18.9125 20.7368 18.5 20.7368ZM5.5 19.2368H18.5V18.3868C18.5 18.1201 18.4208 17.866 18.2625 17.6243C18.1042 17.3826 17.9083 17.2035 17.675 17.0868C16.6083 16.5701 15.6333 16.216 14.75 16.0243C13.8667 15.8326 12.95 15.7368 12 15.7368C11.05 15.7368 10.125 15.8326 9.225 16.0243C8.325 16.216 7.35 16.5701 6.3 17.0868C6.06667 17.2035 5.875 17.3826 5.725 17.6243C5.575 17.866 5.5 18.1201 5.5 18.3868V19.2368ZM12 11.2118C12.65 11.2118 13.1875 10.9993 13.6125 10.5743C14.0375 10.1493 14.25 9.61179 14.25 8.96179C14.25 8.31179 14.0375 7.77429 13.6125 7.34929C13.1875 6.92429 12.65 6.71179 12 6.71179C11.35 6.71179 10.8125 6.92429 10.3875 7.34929C9.9625 7.77429 9.75 8.31179 9.75 8.96179C9.75 9.61179 9.9625 10.1493 10.3875 10.5743C10.8125 10.9993 11.35 11.2118 12 11.2118Z" fill="#828282"/>
</svg>
