<svg width="45" height="44" viewBox="0 0 45 44" fill="none" xmlns="http://www.w3.org/2000/svg">
<rect x="0.5" width="44" height="44" rx="8" fill="#EFEEFF"/>
<path d="M14.5 25.75H12.75V23C12.75 20.9281 14.4281 19.25 16.5 19.25H20.25V24V24.25H20.5H24.02H24.1402L24.2152 24.1562L27.6952 19.8062L27.75 19.7377V19.65V17V16.75H27.5H24.75V15.25H27.5C28.4619 15.25 29.25 16.0381 29.25 17V20.2623L24.8598 25.75H20.5H20.25V26C20.25 27.5219 19.0219 28.75 17.5 28.75C15.9781 28.75 14.75 27.5219 14.75 26V25.75H14.5ZM14.25 24V24.25H14.5H18.5H18.75V24V21V20.75H18.5H16.5C15.2619 20.75 14.25 21.7619 14.25 23V24ZM16.5 25.75H16.25V26C16.25 26.6881 16.8119 27.25 17.5 27.25C18.1881 27.25 18.75 26.6881 18.75 26V25.75H18.5H16.5Z" fill="#1000C7" stroke="#1000C7" stroke-width="0.5"/>
<path d="M15.75 16.25H20.25V17.75H15.75V16.25ZM26.75 26C26.75 24.4781 27.9781 23.25 29.5 23.25C31.0219 23.25 32.25 24.4781 32.25 26C32.25 27.5219 31.0219 28.75 29.5 28.75C27.9781 28.75 26.75 27.5219 26.75 26ZM28.25 26C28.25 26.6881 28.8119 27.25 29.5 27.25C30.1881 27.25 30.75 26.6881 30.75 26C30.75 25.3119 30.1881 24.75 29.5 24.75C28.8119 24.75 28.25 25.3119 28.25 26Z" fill="#1000C7" stroke="#1000C7" stroke-width="0.5"/>
</svg>
