<svg width="24" height="24" viewBox="0 0 24 24" fill="none" xmlns="http://www.w3.org/2000/svg">
<path d="M9.6 19.8002V10.7402V19.8002ZM9.6 19.8002C9.60028 19.9502 9.54441 20.0948 9.44339 20.2056C9.34238 20.3164 9.20354 20.3853 9.05421 20.3989C8.90489 20.4124 8.75591 20.3696 8.6366 20.2788C8.5173 20.188 8.43631 20.0558 8.4096 19.9082L9.6 19.8002ZM11.4 4.10023L11.4002 4.10023C11.4236 4.10022 11.4462 4.10842 11.4642 4.12341C11.4787 4.13551 11.4895 4.15142 11.4953 4.16922L11.5 4.22241V7.80023V7.80033C11.5001 8.37666 11.3011 8.93532 10.9367 9.38178C10.5722 9.82824 10.0647 10.1351 9.5 10.2503L9.1 10.332V10.7402L9.1 19.8002L9.1 19.8011C9.10005 19.8261 9.09074 19.8502 9.0739 19.8687C9.05707 19.8872 9.03393 19.8987 9.00904 19.9009C8.98414 19.9032 8.95932 19.896 8.93944 19.8809C8.92306 19.8684 8.91101 19.8513 8.90479 19.8319L8.9 19.778V10.7402V10.3321L8.50019 10.2504C7.96431 10.1408 7.47913 9.85853 7.11896 9.44688C6.76054 9.03724 6.54559 8.52192 6.50659 7.97915L6.5 7.79146L6.5 4.20023L6.5 4.19931C6.49995 4.17432 6.50927 4.15022 6.5261 4.13175C6.54294 4.11328 6.56608 4.10179 6.59096 4.09953C6.61585 4.09727 6.64068 4.10442 6.66057 4.11955C6.67694 4.13202 6.68899 4.14916 6.69521 4.16856L6.7 4.2224L6.7 7.79997C6.7 7.80001 6.7 7.80005 6.7 7.80009C6.7 7.80013 6.7 7.80018 6.7 7.80023C6.69981 8.27597 6.84714 8.74007 7.12171 9.12858C7.39633 9.51717 7.78471 9.81102 8.23333 9.96963L8.9 10.2053V9.49823L8.9 4.20023L8.9 4.19931C8.89995 4.17432 8.90927 4.15022 8.9261 4.13175C8.94294 4.11328 8.96608 4.10179 8.99096 4.09953C9.01585 4.09727 9.04068 4.10442 9.06057 4.11955C9.07694 4.13202 9.08899 4.14916 9.09521 4.16856L9.1 4.2224V9.49703V10.2039L9.7665 9.96849C10.5909 9.67734 11.2001 8.92999 11.2892 8.02819L11.2904 8.01537L11.291 8.00249L11.2994 7.82369L11.3 7.81197V7.80023V4.20023C11.3 4.1737 11.3105 4.14827 11.3293 4.12952C11.348 4.11076 11.3735 4.10023 11.4 4.10023ZM17.4 4.10023L17.4002 4.10023C17.4236 4.10022 17.4462 4.10842 17.4642 4.1234C17.4787 4.13551 17.4895 4.15142 17.4953 4.16922L17.5 4.2224L17.5 19.8002L17.5 19.8012C17.5 19.8261 17.4907 19.8502 17.4739 19.8687C17.4571 19.8872 17.4339 19.8987 17.409 19.9009C17.3841 19.9032 17.3593 19.896 17.3394 19.8809L17.0366 20.2788L17.3394 19.8809C17.3231 19.8684 17.311 19.8513 17.3048 19.8319L17.3 19.778V13.2002V12.7002H16.8H15H14.9998C14.9764 12.7002 14.9538 12.692 14.9358 12.677C14.9213 12.6649 14.9105 12.649 14.9047 12.6312L14.9 12.578V6.60023C14.9 5.93719 15.1634 5.3013 15.6322 4.83246C16.1011 4.36362 16.737 4.10023 17.4 4.10023ZM16.8 12.5002H17.3V12.0002V4.90223V4.19538L16.6335 4.43076C15.8089 4.72198 15.1999 5.46947 15.1108 6.37235L15.1096 6.38513L15.109 6.39796L15.1006 6.57676L15.1 6.58849V6.60023V12.0002V12.5002H15.6H16.8Z" fill="#1F1F1F" stroke="#1000C7"/>
</svg>
