<svg width="22" height="27" viewBox="0 0 22 27" fill="none" xmlns="http://www.w3.org/2000/svg">
<path d="M1.33333 22.8333C0.955555 22.8333 0.638889 22.7055 0.383333 22.45C0.127778 22.1944 0 21.8778 0 21.5C0 21.1222 0.127778 20.8055 0.383333 20.55C0.638889 20.2944 0.955555 20.1667 1.33333 20.1667H2.66667V10.8333C2.66667 8.98888 3.22222 7.34999 4.33333 5.91666C5.44444 4.48332 6.88889 3.54443 8.66667 3.09999V2.16666C8.66667 1.6111 8.86111 1.13888 9.25 0.74999C9.63889 0.361101 10.1111 0.166656 10.6667 0.166656C11.2222 0.166656 11.6944 0.361101 12.0833 0.74999C12.4722 1.13888 12.6667 1.6111 12.6667 2.16666V3.09999C14.4444 3.54443 15.8889 4.48332 17 5.91666C18.1111 7.34999 18.6667 8.98888 18.6667 10.8333V20.1667H20C20.3778 20.1667 20.6944 20.2944 20.95 20.55C21.2056 20.8055 21.3333 21.1222 21.3333 21.5C21.3333 21.8778 21.2056 22.1944 20.95 22.45C20.6944 22.7055 20.3778 22.8333 20 22.8333H1.33333ZM10.6667 26.8333C9.93333 26.8333 9.30556 26.5722 8.78333 26.05C8.26111 25.5278 8 24.9 8 24.1667H13.3333C13.3333 24.9 13.0722 25.5278 12.55 26.05C12.0278 26.5722 11.4 26.8333 10.6667 26.8333ZM5.33333 20.1667H16V10.8333C16 9.36666 15.4778 8.1111 14.4333 7.06666C13.3889 6.02221 12.1333 5.49999 10.6667 5.49999C9.2 5.49999 7.94444 6.02221 6.9 7.06666C5.85556 8.1111 5.33333 9.36666 5.33333 10.8333V20.1667Z" fill="#828282"/>
</svg>
