<svg width="24" height="24" viewBox="0 0 24 24" fill="none" xmlns="http://www.w3.org/2000/svg">
<path d="M11.4 3.60023C11.5404 3.60018 11.6764 3.64939 11.7843 3.73929C11.8922 3.8292 11.9651 3.95409 11.9904 4.09223L12 4.20023V7.80023C12.0001 8.49182 11.7613 9.16222 11.324 9.69797C10.8866 10.2337 10.2776 10.6019 9.6 10.7402V19.8002C9.60028 19.9502 9.54441 20.0948 9.44339 20.2056C9.34238 20.3164 9.20354 20.3853 9.05421 20.3989C8.90489 20.4124 8.75591 20.3696 8.6366 20.2788C8.5173 20.188 8.43631 20.0558 8.4096 19.9082L8.4 19.8002V10.7402C7.757 10.6087 7.17483 10.2701 6.74266 9.77613C6.31049 9.28219 6.05215 8.6602 6.0072 8.00543L6 7.80023V4.20023C5.99973 4.05029 6.0556 3.90569 6.15661 3.79489C6.25763 3.68409 6.39646 3.61512 6.54579 3.60158C6.69511 3.58803 6.84409 3.63088 6.9634 3.72169C7.08271 3.8125 7.16369 3.94469 7.1904 4.09223L7.2 4.20023V7.80023C7.19981 8.17262 7.31511 8.5359 7.53003 8.84002C7.74496 9.14413 8.04891 9.3741 8.4 9.49823V4.20023C8.39972 4.05029 8.4556 3.90569 8.55661 3.79489C8.65763 3.68409 8.79646 3.61512 8.94579 3.60158C9.09511 3.58803 9.24409 3.63088 9.3634 3.72169C9.48271 3.8125 9.56369 3.94469 9.5904 4.09223L9.6 4.20023V9.49703C10.2456 9.26903 10.722 8.68343 10.7916 7.97903L10.8 7.80023V4.20023C10.8 4.0411 10.8632 3.88848 10.9757 3.77596C11.0883 3.66344 11.2409 3.60023 11.4 3.60023ZM17.4 3.60023C17.5404 3.60018 17.6764 3.64939 17.7843 3.73929C17.8922 3.8292 17.9651 3.95409 17.9904 4.09223L18 4.20023V19.8002C18.0003 19.9502 17.9444 20.0948 17.8434 20.2056C17.7424 20.3164 17.6035 20.3853 17.4542 20.3989C17.3049 20.4124 17.1559 20.3696 17.0366 20.2788C16.9173 20.188 16.8363 20.0558 16.8096 19.9082L16.8 19.8002V13.2002H15C14.8596 13.2003 14.7236 13.1511 14.6157 13.0612C14.5078 12.9713 14.4349 12.8464 14.4096 12.7082L14.4 12.6002V6.60023C14.4 5.80458 14.7161 5.04152 15.2787 4.47891C15.8413 3.9163 16.6044 3.60023 17.4 3.60023ZM16.8 12.0002V4.90223C16.1544 5.13023 15.678 5.71583 15.6084 6.42143L15.6 6.60023V12.0002H16.8V4.90223V12.0002Z" fill="#1F1F1F"/>
</svg>
