<svg width="48" height="48" viewBox="0 0 48 48" fill="none" xmlns="http://www.w3.org/2000/svg">
<rect width="48" height="48" rx="24" fill="#EBF3FF"/>
<path d="M17.0002 18C16.7169 18 16.4794 17.9042 16.2877 17.7125C16.096 17.5208 16.0002 17.2833 16.0002 17C16.0002 16.7167 16.096 16.4792 16.2877 16.2875C16.4794 16.0958 16.7169 16 17.0002 16H31.0002C31.2835 16 31.521 16.0958 31.7127 16.2875C31.9044 16.4792 32.0002 16.7167 32.0002 17C32.0002 17.2833 31.9044 17.5208 31.7127 17.7125C31.521 17.9042 31.2835 18 31.0002 18H17.0002ZM17.0002 32C16.7169 32 16.4794 31.9042 16.2877 31.7125C16.096 31.5208 16.0002 31.2833 16.0002 31V26H15.8252C15.5085 26 15.2502 25.8792 15.0502 25.6375C14.8502 25.3958 14.7835 25.1167 14.8502 24.8L15.8502 19.8C15.9002 19.5667 16.0169 19.375 16.2002 19.225C16.3835 19.075 16.5919 19 16.8252 19H31.1752C31.4085 19 31.6169 19.075 31.8002 19.225C31.9835 19.375 32.1002 19.5667 32.1502 19.8L33.1502 24.8C33.2169 25.1167 33.1502 25.3958 32.9502 25.6375C32.7502 25.8792 32.4919 26 32.1752 26H32.0002V31C32.0002 31.2833 31.9044 31.5208 31.7127 31.7125C31.521 31.9042 31.2835 32 31.0002 32C30.7169 32 30.4794 31.9042 30.2877 31.7125C30.096 31.5208 30.0002 31.2833 30.0002 31V26H26.0002V31C26.0002 31.2833 25.9044 31.5208 25.7127 31.7125C25.521 31.9042 25.2835 32 25.0002 32H17.0002ZM18.0002 30H24.0002V26H18.0002V30ZM17.0502 24H30.9502L30.3502 21H17.6502L17.0502 24Z" fill="#1367D8"/>
</svg>
