<svg width="24" height="25" viewBox="0 0 24 25" fill="none" xmlns="http://www.w3.org/2000/svg">
<path d="M19.95 21.7368C17.8 21.7368 15.7042 21.2577 13.6625 20.2993C11.6208 19.341 9.8125 18.0743 8.2375 16.4993C6.6625 14.9243 5.39583 13.116 4.4375 11.0743C3.47917 9.03265 3 6.93682 3 4.78682C3 4.48682 3.1 4.23682 3.3 4.03682C3.5 3.83682 3.75 3.73682 4.05 3.73682H8.1C8.33333 3.73682 8.54167 3.81182 8.725 3.96182C8.90833 4.11182 9.01667 4.30348 9.05 4.53682L9.7 8.03682C9.73333 8.27015 9.72917 8.48265 9.6875 8.67432C9.64583 8.86598 9.55 9.03682 9.4 9.18682L6.975 11.6368C7.675 12.8368 8.55417 13.9618 9.6125 15.0118C10.6708 16.0618 11.8333 16.9701 13.1 17.7368L15.45 15.3868C15.6 15.2368 15.7958 15.1243 16.0375 15.0493C16.2792 14.9743 16.5167 14.9535 16.75 14.9868L20.2 15.6868C20.4333 15.7368 20.625 15.8493 20.775 16.0243C20.925 16.1993 21 16.4035 21 16.6368V20.6868C21 20.9868 20.9 21.2368 20.7 21.4368C20.5 21.6368 20.25 21.7368 19.95 21.7368ZM6.025 9.73682L7.675 8.08682L7.25 5.73682H5.025C5.10833 6.42015 5.225 7.09515 5.375 7.76182C5.525 8.42848 5.74167 9.08682 6.025 9.73682ZM19 19.6868V17.4868L16.65 17.0118L14.975 18.6868C15.625 18.9701 16.2875 19.1952 16.9625 19.3618C17.6375 19.5285 18.3167 19.6368 19 19.6868Z" fill="#828282"/>
</svg>
