<svg width="48" height="48" viewBox="0 0 48 48" fill="none" xmlns="http://www.w3.org/2000/svg">
<path d="M13.5203 44H34.4803C40.0003 44 42.2003 40.62 42.4603 36.5L43.5003 19.98C43.7803 15.66 40.3403 12 36.0003 12C34.7803 12 33.6603 11.3 33.1003 10.22L31.6603 7.32C30.7403 5.5 28.3403 4 26.3003 4H21.7203C19.6603 4 17.2603 5.5 16.3403 7.32L14.9003 10.22C14.3403 11.3 13.2203 12 12.0003 12C7.66034 12 4.22034 15.66 4.50034 19.98L5.54034 36.5C5.78034 40.62 8.00034 44 13.5203 44Z" stroke="#1F1F1F" stroke-width="1.5" stroke-linecap="round" stroke-linejoin="round"/>
<path d="M21 16H27" stroke="#1F1F1F" stroke-width="1.5" stroke-linecap="round" stroke-linejoin="round"/>
<path d="M24 36C27.58 36 30.5 33.08 30.5 29.5C30.5 25.92 27.58 23 24 23C20.42 23 17.5 25.92 17.5 29.5C17.5 33.08 20.42 36 24 36Z" stroke="#1F1F1F" stroke-width="1.5" stroke-linecap="round" stroke-linejoin="round"/>
</svg>
