<svg width="16" height="22" viewBox="0 0 16 22" fill="none" xmlns="http://www.w3.org/2000/svg">
<path d="M2 21.7368C1.45 21.7368 0.979167 21.541 0.5875 21.1493C0.195833 20.7577 0 20.2868 0 19.7368V9.73682C0 9.18682 0.195833 8.71598 0.5875 8.32432C0.979167 7.93265 1.45 7.73682 2 7.73682H3V5.73682C3 4.35348 3.4875 3.17432 4.4625 2.19932C5.4375 1.22432 6.61667 0.736816 8 0.736816C9.38333 0.736816 10.5625 1.22432 11.5375 2.19932C12.5125 3.17432 13 4.35348 13 5.73682V7.73682H14C14.55 7.73682 15.0208 7.93265 15.4125 8.32432C15.8042 8.71598 16 9.18682 16 9.73682V19.7368C16 20.2868 15.8042 20.7577 15.4125 21.1493C15.0208 21.541 14.55 21.7368 14 21.7368H2ZM2 19.7368H14V9.73682H2V19.7368ZM8 16.7368C8.55 16.7368 9.02083 16.541 9.4125 16.1493C9.80417 15.7577 10 15.2868 10 14.7368C10 14.1868 9.80417 13.716 9.4125 13.3243C9.02083 12.9326 8.55 12.7368 8 12.7368C7.45 12.7368 6.97917 12.9326 6.5875 13.3243C6.19583 13.716 6 14.1868 6 14.7368C6 15.2868 6.19583 15.7577 6.5875 16.1493C6.97917 16.541 7.45 16.7368 8 16.7368ZM5 7.73682H11V5.73682C11 4.90348 10.7083 4.19515 10.125 3.61182C9.54167 3.02848 8.83333 2.73682 8 2.73682C7.16667 2.73682 6.45833 3.02848 5.875 3.61182C5.29167 4.19515 5 4.90348 5 5.73682V7.73682Z" fill="#828282"/>
</svg>
