<svg width="48" height="48" viewBox="0 0 48 48" fill="none" xmlns="http://www.w3.org/2000/svg">
<rect width="48" height="48" rx="24" fill="#FFEFD6"/>
<path d="M19.5 23C18.5333 23 17.7083 22.6583 17.025 21.975C16.3417 21.2917 16 20.4667 16 19.5C16 18.5333 16.3417 17.7083 17.025 17.025C17.7083 16.3417 18.5333 16 19.5 16C20.4667 16 21.2917 16.3417 21.975 17.025C22.6583 17.7083 23 18.5333 23 19.5C23 20.4667 22.6583 21.2917 21.975 21.975C21.2917 22.6583 20.4667 23 19.5 23ZM19.5 21C19.9167 21 20.2708 20.8542 20.5625 20.5625C20.8542 20.2708 21 19.9167 21 19.5C21 19.0833 20.8542 18.7292 20.5625 18.4375C20.2708 18.1458 19.9167 18 19.5 18C19.0833 18 18.7292 18.1458 18.4375 18.4375C18.1458 18.7292 18 19.0833 18 19.5C18 19.9167 18.1458 20.2708 18.4375 20.5625C18.7292 20.8542 19.0833 21 19.5 21ZM28.5 32C27.5333 32 26.7083 31.6583 26.025 30.975C25.3417 30.2917 25 29.4667 25 28.5C25 27.5333 25.3417 26.7083 26.025 26.025C26.7083 25.3417 27.5333 25 28.5 25C29.4667 25 30.2917 25.3417 30.975 26.025C31.6583 26.7083 32 27.5333 32 28.5C32 29.4667 31.6583 30.2917 30.975 30.975C30.2917 31.6583 29.4667 32 28.5 32ZM28.5 30C28.9167 30 29.2708 29.8542 29.5625 29.5625C29.8542 29.2708 30 28.9167 30 28.5C30 28.0833 29.8542 27.7292 29.5625 27.4375C29.2708 27.1458 28.9167 27 28.5 27C28.0833 27 27.7292 27.1458 27.4375 27.4375C27.1458 27.7292 27 28.0833 27 28.5C27 28.9167 27.1458 29.2708 27.4375 29.5625C27.7292 29.8542 28.0833 30 28.5 30ZM16.7 31.3C16.5167 31.1167 16.425 30.8833 16.425 30.6C16.425 30.3167 16.5167 30.0833 16.7 29.9L29.9 16.7C30.0833 16.5167 30.3167 16.425 30.6 16.425C30.8833 16.425 31.1167 16.5167 31.3 16.7C31.4833 16.8833 31.575 17.1167 31.575 17.4C31.575 17.6833 31.4833 17.9167 31.3 18.1L18.1 31.3C17.9167 31.4833 17.6833 31.575 17.4 31.575C17.1167 31.575 16.8833 31.4833 16.7 31.3Z" fill="#A86500"/>
</svg>
