<svg width="48" height="48" viewBox="0 0 48 48" fill="none" xmlns="http://www.w3.org/2000/svg">
<rect width="48" height="48" rx="24" fill="#EBF3FF"/>
<path d="M28.2998 24.2998C28.0998 24.0998 27.9998 23.8623 27.9998 23.5873C27.9998 23.3123 28.0915 23.0831 28.2748 22.8998L30.1748 20.9998H15.9998C15.7165 20.9998 15.479 20.904 15.2873 20.7123C15.0956 20.5206 14.9998 20.2831 14.9998 19.9998C14.9998 19.7165 15.0956 19.479 15.2873 19.2873C15.479 19.0956 15.7165 18.9998 15.9998 18.9998H30.1748L28.2748 17.0998C28.0915 16.9165 27.9998 16.6873 27.9998 16.4123C27.9998 16.1373 28.0998 15.8998 28.2998 15.6998C28.4831 15.5165 28.7165 15.4248 28.9998 15.4248C29.2831 15.4248 29.5165 15.5165 29.6998 15.6998L33.2998 19.2998C33.3998 19.3998 33.4706 19.5081 33.5123 19.6248C33.554 19.7415 33.5748 19.8665 33.5748 19.9998C33.5748 20.1331 33.554 20.2581 33.5123 20.3748C33.4706 20.4915 33.3998 20.5998 33.2998 20.6998L29.6998 24.2998C29.4998 24.4998 29.2623 24.5956 28.9873 24.5873C28.7123 24.579 28.4831 24.4831 28.2998 24.2998ZM18.2998 32.2998L14.6998 28.6998C14.5998 28.5998 14.529 28.4915 14.4873 28.3748C14.4456 28.2581 14.4248 28.1331 14.4248 27.9998C14.4248 27.8665 14.4456 27.7415 14.4873 27.6248C14.529 27.5081 14.5998 27.3998 14.6998 27.2998L18.2998 23.6998C18.4831 23.5165 18.7123 23.4206 18.9873 23.4123C19.2623 23.404 19.4998 23.4998 19.6998 23.6998C19.8998 23.8831 20.004 24.1123 20.0123 24.3873C20.0206 24.6623 19.9248 24.8998 19.7248 25.0998L17.8248 26.9998H31.9998C32.2831 26.9998 32.5206 27.0956 32.7123 27.2873C32.904 27.479 32.9998 27.7165 32.9998 27.9998C32.9998 28.2831 32.904 28.5206 32.7123 28.7123C32.5206 28.904 32.2831 28.9998 31.9998 28.9998H17.8248L19.7248 30.8998C19.9081 31.0831 20.004 31.3165 20.0123 31.5998C20.0206 31.8831 19.9248 32.1165 19.7248 32.2998C19.5415 32.4998 19.3081 32.5998 19.0248 32.5998C18.7415 32.5998 18.4998 32.4998 18.2998 32.2998Z" fill="#1367D8"/>
</svg>
