<svg width="48" height="48" viewBox="0 0 48 48" fill="none" xmlns="http://www.w3.org/2000/svg">
<rect width="48" height="48" rx="24" fill="#FFF0F0"/>
<path d="M24.7037 28.7037C24.5145 28.8929 24.2802 28.9875 24 28.9875C23.7198 28.9875 23.4855 28.8929 23.2963 28.7037C23.1071 28.5145 23.0125 28.2802 23.0125 28C23.0125 27.7198 23.1071 27.4855 23.2963 27.2963C23.4855 27.1071 23.7198 27.0125 24 27.0125C24.2802 27.0125 24.5145 27.1071 24.7037 27.2963C24.8929 27.4855 24.9875 27.7198 24.9875 28C24.9875 28.2802 24.8929 28.5145 24.7037 28.7037ZM24.7037 24.7037C24.5145 24.8929 24.2802 24.9875 24 24.9875C23.7198 24.9875 23.4855 24.8929 23.2963 24.7037C23.1071 24.5145 23.0125 24.2802 23.0125 24V20C23.0125 19.7198 23.1071 19.4855 23.2963 19.2963C23.4855 19.1071 23.7198 19.0125 24 19.0125C24.2802 19.0125 24.5145 19.1071 24.7037 19.2963C24.8929 19.4855 24.9875 19.7198 24.9875 20V24C24.9875 24.2802 24.8929 24.5145 24.7037 24.7037ZM24 33.9875C22.6183 33.9875 21.32 33.7253 20.105 33.201C18.8897 32.6766 17.8327 31.965 16.9338 31.0662C16.035 30.1673 15.3234 29.1103 14.799 27.895C14.2747 26.68 14.0125 25.3817 14.0125 24C14.0125 22.6183 14.2747 21.32 14.799 20.105C15.3234 18.8897 16.035 17.8327 16.9338 16.9338C17.8327 16.035 18.8897 15.3234 20.105 14.799C21.32 14.2747 22.6183 14.0125 24 14.0125C25.3817 14.0125 26.68 14.2747 27.895 14.799C29.1103 15.3234 30.1673 16.035 31.0662 16.9338C31.965 17.8327 32.6766 18.8897 33.201 20.105C33.7253 21.32 33.9875 22.6183 33.9875 24C33.9875 25.3817 33.7253 26.68 33.201 27.895C32.6766 29.1103 31.965 30.1673 31.0662 31.0662C30.1673 31.965 29.1103 32.6766 27.895 33.201C26.68 33.7253 25.3817 33.9875 24 33.9875ZM24 32.0125C26.2366 32.0125 28.1314 31.2362 29.6838 29.6838C31.2362 28.1314 32.0125 26.2366 32.0125 24C32.0125 21.7634 31.2362 19.8686 29.6838 18.3162C28.1314 16.7638 26.2366 15.9875 24 15.9875C21.7634 15.9875 19.8686 16.7638 18.3162 18.3162C16.7638 19.8686 15.9875 21.7634 15.9875 24C15.9875 26.2366 16.7638 28.1314 18.3162 29.6838C19.8686 31.2362 21.7634 32.0125 24 32.0125Z" fill="#E62929" stroke="#E62929" stroke-width="0.025"/>
</svg>
