<svg width="48" height="48" viewBox="0 0 48 48" fill="none" xmlns="http://www.w3.org/2000/svg">
<rect width="48" height="48" rx="24" fill="#FFEFD6"/>
<path d="M19 29C18.1667 29 17.4583 28.7083 16.875 28.125C16.2917 27.5417 16 26.8333 16 26H15C14.7167 26 14.4792 25.9042 14.2875 25.7125C14.0958 25.5208 14 25.2833 14 25V23C14 21.9 14.3917 20.9583 15.175 20.175C15.9583 19.3917 16.9 19 18 19H21C21.2833 19 21.5208 19.0958 21.7125 19.2875C21.9042 19.4792 22 19.7167 22 20V24H25.5L29 19.65V17H27C26.7167 17 26.4792 16.9042 26.2875 16.7125C26.0958 16.5208 26 16.2833 26 16C26 15.7167 26.0958 15.4792 26.2875 15.2875C26.4792 15.0958 26.7167 15 27 15H29C29.55 15 30.0208 15.1958 30.4125 15.5875C30.8042 15.9792 31 16.45 31 17V19.65C31 19.8833 30.9625 20.1042 30.8875 20.3125C30.8125 20.5208 30.7083 20.7167 30.575 20.9L27.1 25.25C26.9167 25.4833 26.6833 25.6667 26.4 25.8C26.1167 25.9333 25.825 26 25.525 26H22C22 26.8333 21.7083 27.5417 21.125 28.125C20.5417 28.7083 19.8333 29 19 29ZM19 27C19.2833 27 19.5208 26.9042 19.7125 26.7125C19.9042 26.5208 20 26.2833 20 26H18C18 26.2833 18.0958 26.5208 18.2875 26.7125C18.4792 26.9042 18.7167 27 19 27ZM18 18C17.7167 18 17.4792 17.9042 17.2875 17.7125C17.0958 17.5208 17 17.2833 17 17C17 16.7167 17.0958 16.4792 17.2875 16.2875C17.4792 16.0958 17.7167 16 18 16H21C21.2833 16 21.5208 16.0958 21.7125 16.2875C21.9042 16.4792 22 16.7167 22 17C22 17.2833 21.9042 17.5208 21.7125 17.7125C21.5208 17.9042 21.2833 18 21 18H18ZM31 29C30.1667 29 29.4583 28.7083 28.875 28.125C28.2917 27.5417 28 26.8333 28 26C28 25.1667 28.2917 24.4583 28.875 23.875C29.4583 23.2917 30.1667 23 31 23C31.8333 23 32.5417 23.2917 33.125 23.875C33.7083 24.4583 34 25.1667 34 26C34 26.8333 33.7083 27.5417 33.125 28.125C32.5417 28.7083 31.8333 29 31 29ZM31 27C31.2833 27 31.5208 26.9042 31.7125 26.7125C31.9042 26.5208 32 26.2833 32 26C32 25.7167 31.9042 25.4792 31.7125 25.2875C31.5208 25.0958 31.2833 25 31 25C30.7167 25 30.4792 25.0958 30.2875 25.2875C30.0958 25.4792 30 25.7167 30 26C30 26.2833 30.0958 26.5208 30.2875 26.7125C30.4792 26.9042 30.7167 27 31 27ZM25 35L19 32H23V30L29 33H25V35ZM16 24H20V21H18C17.45 21 16.9792 21.1958 16.5875 21.5875C16.1958 21.9792 16 22.45 16 23V24Z" fill="#A86500"/>
</svg>
