<svg width="25" height="24" viewBox="0 0 25 24" fill="none" xmlns="http://www.w3.org/2000/svg">
<path d="M12.8333 22.0003H4.41331C3.25331 22.0003 2.30331 21.0703 2.30331 19.9303V5.09035C2.30331 2.47035 4.25331 1.28035 6.64331 2.45035L11.0833 4.63035C12.0433 5.10035 12.8333 6.35035 12.8333 7.41035V22.0003Z" stroke="#1000C7" stroke-width="1.5" stroke-linecap="round" stroke-linejoin="round"/>
<path d="M22.3033 15.0599V18.8399C22.3033 20.9999 21.3033 21.9999 19.1433 21.9999H12.8333V10.4199L13.3033 10.5199L17.8033 11.5299L19.8333 11.9799C21.1533 12.2699 22.2333 12.9499 22.2933 14.8699C22.3033 14.9299 22.3033 14.9899 22.3033 15.0599Z" stroke="#1000C7" stroke-width="1.5" stroke-linecap="round" stroke-linejoin="round"/>
<path d="M5.83331 9H9.30331" stroke="#1000C7" stroke-width="1.5" stroke-linecap="round" stroke-linejoin="round"/>
<path d="M5.83331 13H9.30331" stroke="#1000C7" stroke-width="1.5" stroke-linecap="round" stroke-linejoin="round"/>
<path d="M17.8033 11.53V14.75C17.8033 15.99 16.7933 17 15.5533 17C14.3133 17 13.3033 15.99 13.3033 14.75V10.52L17.8033 11.53Z" stroke="#1000C7" stroke-width="1.5" stroke-linecap="round" stroke-linejoin="round"/>
<path d="M22.2933 14.8703C22.2333 16.0503 21.2533 17.0003 20.0533 17.0003C18.8133 17.0003 17.8033 15.9903 17.8033 14.7503V11.5303L19.8333 11.9803C21.1533 12.2703 22.2333 12.9503 22.2933 14.8703Z" stroke="#1000C7" stroke-width="1.5" stroke-linecap="round" stroke-linejoin="round"/>
</svg>
