<svg width="25" height="24" viewBox="0 0 25 24" fill="none" xmlns="http://www.w3.org/2000/svg">
<path d="M18.6667 7.16C18.6067 7.15 18.5367 7.15 18.4767 7.16C17.0967 7.11 15.9967 5.98 15.9967 4.58C15.9967 3.15 17.1467 2 18.5767 2C20.0067 2 21.1567 3.16 21.1567 4.58C21.1467 5.98 20.0467 7.11 18.6667 7.16Z" stroke="#E68900" stroke-width="1.5" stroke-linecap="round" stroke-linejoin="round"/>
<path d="M17.6367 14.4402C19.0067 14.6702 20.5167 14.4302 21.5767 13.7202C22.9867 12.7802 22.9867 11.2402 21.5767 10.3002C20.5067 9.59016 18.9767 9.35016 17.6067 9.59016" stroke="#E68900" stroke-width="1.5" stroke-linecap="round" stroke-linejoin="round"/>
<path d="M6.6367 7.16C6.6967 7.15 6.7667 7.15 6.8267 7.16C8.2067 7.11 9.3067 5.98 9.3067 4.58C9.3067 3.15 8.1567 2 6.7267 2C5.2967 2 4.1467 3.16 4.1467 4.58C4.1567 5.98 5.2567 7.11 6.6367 7.16Z" stroke="#E68900" stroke-width="1.5" stroke-linecap="round" stroke-linejoin="round"/>
<path d="M7.66669 14.4402C6.29669 14.6702 4.78669 14.4302 3.72669 13.7202C2.31669 12.7802 2.31669 11.2402 3.72669 10.3002C4.79669 9.59016 6.32669 9.35016 7.69669 9.59016" stroke="#E68900" stroke-width="1.5" stroke-linecap="round" stroke-linejoin="round"/>
<path d="M12.6667 14.6302C12.6067 14.6202 12.5367 14.6202 12.4767 14.6302C11.0967 14.5802 9.9967 13.4502 9.9967 12.0502C9.9967 10.6202 11.1467 9.47021 12.5767 9.47021C14.0067 9.47021 15.1567 10.6302 15.1567 12.0502C15.1467 13.4502 14.0467 14.5902 12.6667 14.6302Z" stroke="#E68900" stroke-width="1.5" stroke-linecap="round" stroke-linejoin="round"/>
<path d="M9.75669 17.7804C8.34669 18.7204 8.34669 20.2603 9.75669 21.2003C11.3567 22.2703 13.9767 22.2703 15.5767 21.2003C16.9867 20.2603 16.9867 18.7204 15.5767 17.7804C13.9867 16.7204 11.3567 16.7204 9.75669 17.7804Z" stroke="#E68900" stroke-width="1.5" stroke-linecap="round" stroke-linejoin="round"/>
</svg>
