<svg width="25" height="24" viewBox="0 0 25 24" fill="none" xmlns="http://www.w3.org/2000/svg">
<path d="M9.23633 15.27L15.7763 8.72998" stroke="#E68900" stroke-width="1.5" stroke-linecap="round" stroke-linejoin="round"/>
<path d="M9.64603 10.3701C10.3253 10.3701 10.876 9.81948 10.876 9.14017C10.876 8.46086 10.3253 7.91016 9.64603 7.91016C8.96672 7.91016 8.41602 8.46086 8.41602 9.14017C8.41602 9.81948 8.96672 10.3701 9.64603 10.3701Z" stroke="#E68900" stroke-width="1.5" stroke-linecap="round" stroke-linejoin="round"/>
<path d="M16.187 16.0899C16.8663 16.0899 17.417 15.5392 17.417 14.8599C17.417 14.1806 16.8663 13.6299 16.187 13.6299C15.5077 13.6299 14.957 14.1806 14.957 14.8599C14.957 15.5392 15.5077 16.0899 16.187 16.0899Z" stroke="#E68900" stroke-width="1.5" stroke-linecap="round" stroke-linejoin="round"/>
<path d="M12.666 22C18.1889 22 22.666 17.5228 22.666 12C22.666 6.47715 18.1889 2 12.666 2C7.14317 2 2.66602 6.47715 2.66602 12C2.66602 17.5228 7.14317 22 12.666 22Z" stroke="#E68900" stroke-width="1.5" stroke-linecap="round" stroke-linejoin="round"/>
</svg>
