<svg width="24" height="24" viewBox="0 0 24 24" fill="none" xmlns="http://www.w3.org/2000/svg">
<path d="M4.99945 17.7499C4.93491 17.7499 4.8743 17.7277 4.82301 17.6764C4.72827 17.5817 4.72827 17.4182 4.82301 17.3235L18.823 3.32349C18.9177 3.22876 19.0812 3.22876 19.1759 3.32349C19.2706 3.41823 19.2706 3.58165 19.1759 3.67639L5.1759 17.6764C5.12461 17.7277 5.064 17.7499 4.99945 17.7499Z" stroke="#008305"/>
<path d="M15.27 18.25H5C4.59 18.25 4.25 17.91 4.25 17.5V7.22998C4.25 6.81998 4.59 6.47998 5 6.47998C5.41 6.47998 5.75 6.81998 5.75 7.22998V16.75H15.27C15.68 16.75 16.02 17.09 16.02 17.5C16.02 17.91 15.68 18.25 15.27 18.25Z" fill="#008305"/>
<path d="M20.5 22.75H3.5C3.09 22.75 2.75 22.41 2.75 22C2.75 21.59 3.09 21.25 3.5 21.25H20.5C20.91 21.25 21.25 21.59 21.25 22C21.25 22.41 20.91 22.75 20.5 22.75Z" fill="#008305"/>
</svg>
