<svg width="24" height="24" viewBox="0 0 24 24" fill="none" xmlns="http://www.w3.org/2000/svg">
<path d="M20.5 22.25H3.5C3.36614 22.25 3.25 22.1339 3.25 22C3.25 21.8661 3.36614 21.75 3.5 21.75H20.5C20.6339 21.75 20.75 21.8661 20.75 22C20.75 22.1339 20.6339 22.25 20.5 22.25Z" stroke="#D40000"/>
<path d="M4.99762 17.7499C5.06217 17.7499 5.12277 17.7277 5.17406 17.6764L19.1741 3.67639C19.2688 3.58165 19.2688 3.41823 19.1741 3.32349C19.0793 3.22876 18.9159 3.22876 18.8212 3.32349L4.82117 17.3235C4.72644 17.4182 4.72644 17.5817 4.82117 17.6764C4.87246 17.7277 4.93307 17.7499 4.99762 17.7499Z" fill="#D40000" stroke="#D40000"/>
<path d="M18.998 14.52C19.408 14.52 19.748 14.18 19.748 13.77V3.5C19.748 3.09 19.408 2.75 18.998 2.75H8.72805C8.31805 2.75 7.97805 3.09 7.97805 3.5C7.97805 3.91 8.31805 4.25 8.72805 4.25H18.248V13.77C18.248 14.18 18.588 14.52 18.998 14.52Z" fill="#D40000"/>
</svg>
