<svg width="48" height="48" viewBox="0 0 48 48" fill="none" xmlns="http://www.w3.org/2000/svg">
<rect width="48" height="48" rx="24" fill="#EBFFF3"/>
<path d="M17.3005 30.7001L24.3505 28.2001L19.8005 23.6501L17.3005 30.7001ZM35.0255 19.025C34.8755 19.175 34.7005 19.25 34.5005 19.25C34.3005 19.25 34.1255 19.175 33.9755 19.025L33.9005 18.95C33.6671 18.7167 33.3755 18.6 33.0255 18.6C32.6755 18.6 32.3838 18.7167 32.1505 18.95L27.0755 24.0251C26.9255 24.175 26.7505 24.25 26.5505 24.25C26.3505 24.25 26.1755 24.175 26.0255 24.0251C25.8755 23.875 25.8005 23.7 25.8005 23.5C25.8005 23.3 25.8755 23.125 26.0255 22.975L31.1005 17.9C31.6338 17.3667 32.2755 17.1 33.0255 17.1C33.7755 17.1 34.4171 17.3667 34.9505 17.9L35.0255 17.975C35.1755 18.125 35.2505 18.3 35.2505 18.5C35.2505 18.7 35.1755 18.875 35.0255 19.025ZM21.9755 16.025C22.1255 15.875 22.3005 15.8 22.5005 15.8C22.7005 15.8 22.8755 15.875 23.0255 16.025L23.1505 16.15C23.6838 16.6834 23.9505 17.3167 23.9505 18.05C23.9505 18.7834 23.6838 19.4167 23.1505 19.95L23.0755 20.025C22.9255 20.175 22.7505 20.25 22.5505 20.25C22.3505 20.25 22.1755 20.175 22.0255 20.025C21.8755 19.875 21.8005 19.7 21.8005 19.5C21.8005 19.3 21.8755 19.125 22.0255 18.975L22.1005 18.9C22.3338 18.6667 22.4505 18.3834 22.4505 18.05C22.4505 17.7167 22.3338 17.4334 22.1005 17.2L21.9755 17.075C21.8255 16.925 21.7505 16.75 21.7505 16.55C21.7505 16.35 21.8255 16.175 21.9755 16.025ZM26.0255 14.025C26.1755 13.875 26.3505 13.8 26.5505 13.8C26.7505 13.8 26.9255 13.875 27.0755 14.025L28.1505 15.1C28.6838 15.6334 28.9505 16.275 28.9505 17.025C28.9505 17.775 28.6838 18.4167 28.1505 18.95L25.0755 22.025C24.9255 22.175 24.7505 22.25 24.5505 22.25C24.3505 22.25 24.1755 22.175 24.0255 22.025C23.8755 21.875 23.8005 21.7 23.8005 21.5C23.8005 21.3 23.8755 21.125 24.0255 20.975L27.1005 17.9C27.3338 17.6667 27.4505 17.375 27.4505 17.025C27.4505 16.675 27.3338 16.3834 27.1005 16.15L26.0255 15.075C25.8755 14.925 25.8005 14.75 25.8005 14.55C25.8005 14.35 25.8755 14.175 26.0255 14.025ZM34.0255 26.0251C33.8755 26.175 33.7005 26.25 33.5005 26.25C33.3005 26.25 33.1255 26.175 32.9755 26.0251L31.9005 24.95C31.6671 24.7167 31.3755 24.6 31.0255 24.6C30.6755 24.6 30.3838 24.7167 30.1505 24.95L29.0755 26.0251C28.9255 26.175 28.7505 26.25 28.5505 26.25C28.3505 26.25 28.1755 26.175 28.0255 26.0251C27.8755 25.875 27.8005 25.7001 27.8005 25.5C27.8005 25.3 27.8755 25.125 28.0255 24.975L29.1005 23.9001C29.6338 23.3667 30.2755 23.1 31.0255 23.1C31.7755 23.1 32.4171 23.3667 32.9505 23.9001L34.0255 24.975C34.1755 25.125 34.2505 25.3 34.2505 25.5C34.2505 25.7001 34.1755 25.875 34.0255 26.0251ZM14.7005 32L18.4755 21.5C18.5588 21.2834 18.688 21.1167 18.863 21C19.038 20.8834 19.2255 20.825 19.4255 20.825C19.5588 20.825 19.6838 20.85 19.8005 20.9C19.9171 20.95 20.0255 21.025 20.1255 21.125L26.8755 27.8751C26.9755 27.975 27.0505 28.0834 27.1005 28.2001C27.1505 28.3167 27.1755 28.4417 27.1755 28.5751C27.1755 28.7751 27.1171 28.9626 27.0005 29.1376C26.8838 29.3126 26.7171 29.4417 26.5005 29.5251L16.0005 33.3001C15.8005 33.3834 15.6088 33.3959 15.4255 33.3376C15.2421 33.2792 15.0838 33.1834 14.9505 33.0501C14.8171 32.9167 14.7213 32.7584 14.663 32.5751C14.6046 32.3917 14.6171 32.2001 14.7005 32Z" fill="#1E854A"/>
</svg>
