<svg width="14" height="14" viewBox="0 0 14 14" fill="none" xmlns="http://www.w3.org/2000/svg">
<path d="M6.06671 8.2L4.63337 6.76667C4.51115 6.64445 4.3556 6.58333 4.16671 6.58333C3.97782 6.58333 3.82226 6.64445 3.70004 6.76667C3.57782 6.88889 3.51671 7.04445 3.51671 7.23333C3.51671 7.42222 3.57782 7.57778 3.70004 7.7L5.60004 9.6C5.73337 9.73333 5.88893 9.8 6.06671 9.8C6.24449 9.8 6.40004 9.73333 6.53337 9.6L10.3 5.83333C10.4223 5.71111 10.4834 5.55556 10.4834 5.36667C10.4834 5.17778 10.4223 5.02222 10.3 4.9C10.1778 4.77778 10.0223 4.71667 9.83337 4.71667C9.64449 4.71667 9.48893 4.77778 9.36671 4.9L6.06671 8.2ZM7.00004 13.6667C6.07782 13.6667 5.21115 13.4917 4.40004 13.1417C3.58893 12.7917 2.88337 12.3167 2.28337 11.7167C1.68337 11.1167 1.20837 10.4111 0.858374 9.6C0.508374 8.78889 0.333374 7.92222 0.333374 7C0.333374 6.07778 0.508374 5.21111 0.858374 4.4C1.20837 3.58889 1.68337 2.88333 2.28337 2.28333C2.88337 1.68333 3.58893 1.20833 4.40004 0.858334C5.21115 0.508334 6.07782 0.333334 7.00004 0.333334C7.92226 0.333334 8.78893 0.508334 9.60004 0.858334C10.4112 1.20833 11.1167 1.68333 11.7167 2.28333C12.3167 2.88333 12.7917 3.58889 13.1417 4.4C13.4917 5.21111 13.6667 6.07778 13.6667 7C13.6667 7.92222 13.4917 8.78889 13.1417 9.6C12.7917 10.4111 12.3167 11.1167 11.7167 11.7167C11.1167 12.3167 10.4112 12.7917 9.60004 13.1417C8.78893 13.4917 7.92226 13.6667 7.00004 13.6667ZM7.00004 12.3333C8.48893 12.3333 9.75004 11.8167 10.7834 10.7833C11.8167 9.75 12.3334 8.48889 12.3334 7C12.3334 5.51111 11.8167 4.25 10.7834 3.21667C9.75004 2.18333 8.48893 1.66667 7.00004 1.66667C5.51115 1.66667 4.25004 2.18333 3.21671 3.21667C2.18337 4.25 1.66671 5.51111 1.66671 7C1.66671 8.48889 2.18337 9.75 3.21671 10.7833C4.25004 11.8167 5.51115 12.3333 7.00004 12.3333Z" fill="#828282"/>
</svg>
