<svg width="44" height="44" viewBox="0 0 44 44" fill="none" xmlns="http://www.w3.org/2000/svg">
<rect width="44" height="44" rx="22" fill="#FFEBED"/>
<path d="M16 32C15.1667 32 14.4583 31.7083 13.875 31.125C13.2917 30.5417 13 29.8333 13 29V27C13 26.7167 13.0958 26.4792 13.2875 26.2875C13.4792 26.0958 13.7167 26 14 26H16V12.6C16 12.4833 16.05 12.4042 16.15 12.3625C16.25 12.3208 16.3417 12.3417 16.425 12.425L17.15 13.15C17.25 13.25 17.3667 13.3 17.5 13.3C17.6333 13.3 17.75 13.25 17.85 13.15L18.65 12.35C18.75 12.25 18.8667 12.2 19 12.2C19.1333 12.2 19.25 12.25 19.35 12.35L20.15 13.15C20.25 13.25 20.3667 13.3 20.5 13.3C20.6333 13.3 20.75 13.25 20.85 13.15L21.65 12.35C21.75 12.25 21.8667 12.2 22 12.2C22.1333 12.2 22.25 12.25 22.35 12.35L23.15 13.15C23.25 13.25 23.3667 13.3 23.5 13.3C23.6333 13.3 23.75 13.25 23.85 13.15L24.65 12.35C24.75 12.25 24.8667 12.2 25 12.2C25.1333 12.2 25.25 12.25 25.35 12.35L26.15 13.15C26.25 13.25 26.3667 13.3 26.5 13.3C26.6333 13.3 26.75 13.25 26.85 13.15L27.65 12.35C27.75 12.25 27.8667 12.2 28 12.2C28.1333 12.2 28.25 12.25 28.35 12.35L29.15 13.15C29.25 13.25 29.3667 13.3 29.5 13.3C29.6333 13.3 29.75 13.25 29.85 13.15L30.575 12.425C30.6583 12.3417 30.75 12.3208 30.85 12.3625C30.95 12.4042 31 12.4833 31 12.6V29C31 29.8333 30.7083 30.5417 30.125 31.125C29.5417 31.7083 28.8333 32 28 32H16ZM28 30C28.2833 30 28.5208 29.9042 28.7125 29.7125C28.9042 29.5208 29 29.2833 29 29V15H18V26H26C26.2833 26 26.5208 26.0958 26.7125 26.2875C26.9042 26.4792 27 26.7167 27 27V29C27 29.2833 27.0958 29.5208 27.2875 29.7125C27.4792 29.9042 27.7167 30 28 30ZM20 17H24C24.2833 17 24.5208 17.0958 24.7125 17.2875C24.9042 17.4792 25 17.7167 25 18C25 18.2833 24.9042 18.5208 24.7125 18.7125C24.5208 18.9042 24.2833 19 24 19H20C19.7167 19 19.4792 18.9042 19.2875 18.7125C19.0958 18.5208 19 18.2833 19 18C19 17.7167 19.0958 17.4792 19.2875 17.2875C19.4792 17.0958 19.7167 17 20 17ZM20 20H24C24.2833 20 24.5208 20.0958 24.7125 20.2875C24.9042 20.4792 25 20.7167 25 21C25 21.2833 24.9042 21.5208 24.7125 21.7125C24.5208 21.9042 24.2833 22 24 22H20C19.7167 22 19.4792 21.9042 19.2875 21.7125C19.0958 21.5208 19 21.2833 19 21C19 20.7167 19.0958 20.4792 19.2875 20.2875C19.4792 20.0958 19.7167 20 20 20ZM27 19C26.7167 19 26.4792 18.9042 26.2875 18.7125C26.0958 18.5208 26 18.2833 26 18C26 17.7167 26.0958 17.4792 26.2875 17.2875C26.4792 17.0958 26.7167 17 27 17C27.2833 17 27.5208 17.0958 27.7125 17.2875C27.9042 17.4792 28 17.7167 28 18C28 18.2833 27.9042 18.5208 27.7125 18.7125C27.5208 18.9042 27.2833 19 27 19ZM27 22C26.7167 22 26.4792 21.9042 26.2875 21.7125C26.0958 21.5208 26 21.2833 26 21C26 20.7167 26.0958 20.4792 26.2875 20.2875C26.4792 20.0958 26.7167 20 27 20C27.2833 20 27.5208 20.0958 27.7125 20.2875C27.9042 20.4792 28 20.7167 28 21C28 21.2833 27.9042 21.5208 27.7125 21.7125C27.5208 21.9042 27.2833 22 27 22ZM16 30H25V28H15V29C15 29.2833 15.0958 29.5208 15.2875 29.7125C15.4792 29.9042 15.7167 30 16 30Z" fill="#DC0019"/>
</svg>
