<svg width="16" height="16" viewBox="0 0 16 16" fill="none" xmlns="http://www.w3.org/2000/svg">
<path d="M8.05308 11.3333C8.19558 11.3333 8.31405 11.2854 8.4085 11.1896C8.50294 11.0937 8.55016 10.975 8.55016 10.8333V7.83333C8.55016 7.69167 8.50197 7.57292 8.40558 7.47708C8.30918 7.38125 8.18974 7.33333 8.04725 7.33333C7.90475 7.33333 7.78627 7.38125 7.69183 7.47708C7.59739 7.57292 7.55016 7.69167 7.55016 7.83333V10.8333C7.55016 10.975 7.59836 11.0937 7.69475 11.1896C7.79115 11.2854 7.91059 11.3333 8.05308 11.3333ZM7.99986 6.1C8.15562 6.1 8.28627 6.04889 8.39183 5.94667C8.49739 5.84444 8.55016 5.71778 8.55016 5.56667C8.55016 5.40611 8.49749 5.27153 8.39213 5.16292C8.28676 5.0543 8.15621 5 8.00046 5C7.84471 5 7.71405 5.0543 7.6085 5.16292C7.50294 5.27153 7.45016 5.40611 7.45016 5.56667C7.45016 5.71778 7.50284 5.84444 7.6082 5.94667C7.71356 6.04889 7.84412 6.1 7.99986 6.1ZM8.0046 14.6667C7.08533 14.6667 6.22144 14.4917 5.41293 14.1417C4.60442 13.7917 3.89739 13.3139 3.29183 12.7083C2.68627 12.1028 2.2085 11.3953 1.8585 10.586C1.5085 9.77665 1.3335 8.91188 1.3335 7.99167C1.3335 7.07145 1.5085 6.20668 1.8585 5.39735C2.2085 4.588 2.68627 3.88333 3.29183 3.28333C3.89739 2.68333 4.60484 2.20833 5.41418 1.85833C6.22351 1.50833 7.08829 1.33333 8.0085 1.33333C8.92871 1.33333 9.79348 1.50833 10.6028 1.85833C11.4122 2.20833 12.1168 2.68333 12.7168 3.28333C13.3168 3.88333 13.7918 4.58889 14.1418 5.4C14.4918 6.21111 14.6668 7.0763 14.6668 7.99557C14.6668 8.91483 14.4918 9.77872 14.1418 10.5872C13.7918 11.3957 13.3168 12.1018 12.7168 12.7053C12.1168 13.3088 11.4113 13.7866 10.6002 14.1386C9.78905 14.4906 8.92386 14.6667 8.0046 14.6667ZM8.0085 13.6667C9.58072 13.6667 10.9168 13.1139 12.0168 12.0083C13.1168 10.9028 13.6668 9.56389 13.6668 7.99167C13.6668 6.41944 13.1179 5.08333 12.02 3.98333C10.922 2.88333 9.58211 2.33333 8.00016 2.33333C6.4335 2.33333 5.09739 2.88229 3.99183 3.9802C2.88627 5.07812 2.3335 6.41805 2.3335 8C2.3335 9.56667 2.88627 10.9028 3.99183 12.0083C5.09739 13.1139 6.43627 13.6667 8.0085 13.6667Z" fill="#CDA11E"/>
</svg>
