<svg width="48" height="48" viewBox="0 0 48 48" fill="none" xmlns="http://www.w3.org/2000/svg">
<rect width="48" height="48" rx="24" fill="#EBF3FF"/>
<path d="M28 25.5C28.4333 25.5 28.7917 25.3583 29.075 25.075C29.3583 24.7917 29.5 24.4333 29.5 24C29.5 23.5667 29.3583 23.2083 29.075 22.925C28.7917 22.6417 28.4333 22.5 28 22.5C27.5667 22.5 27.2083 22.6417 26.925 22.925C26.6417 23.2083 26.5 23.5667 26.5 24C26.5 24.4333 26.6417 24.7917 26.925 25.075C27.2083 25.3583 27.5667 25.5 28 25.5ZM17 33C16.45 33 15.9792 32.8042 15.5875 32.4125C15.1958 32.0208 15 31.55 15 31V17C15 16.45 15.1958 15.9792 15.5875 15.5875C15.9792 15.1958 16.45 15 17 15H31C31.55 15 32.0208 15.1958 32.4125 15.5875C32.8042 15.9792 33 16.45 33 17V19.5H31V17H17V31H31V28.5H33V31C33 31.55 32.8042 32.0208 32.4125 32.4125C32.0208 32.8042 31.55 33 31 33H17ZM25 29C24.45 29 23.9792 28.8042 23.5875 28.4125C23.1958 28.0208 23 27.55 23 27V21C23 20.45 23.1958 19.9792 23.5875 19.5875C23.9792 19.1958 24.45 19 25 19H32C32.55 19 33.0208 19.1958 33.4125 19.5875C33.8042 19.9792 34 20.45 34 21V27C34 27.55 33.8042 28.0208 33.4125 28.4125C33.0208 28.8042 32.55 29 32 29H25Z" fill="#1367D8"/>
</svg>
