<svg width="14" height="12" viewBox="0 0 14 12" fill="none" xmlns="http://www.w3.org/2000/svg">
<path d="M9.8667 6.2C9.73337 6.06667 9.6667 5.90833 9.6667 5.725C9.6667 5.54167 9.72781 5.38889 9.85003 5.26667L11.1167 4H1.6667C1.47781 4 1.31948 3.93611 1.1917 3.80833C1.06392 3.68056 1.00003 3.52222 1.00003 3.33333C1.00003 3.14444 1.06392 2.98611 1.1917 2.85833C1.31948 2.73056 1.47781 2.66667 1.6667 2.66667H11.1167L9.85003 1.4C9.72781 1.27778 9.6667 1.125 9.6667 0.941666C9.6667 0.758333 9.73337 0.6 9.8667 0.466666C9.98892 0.344444 10.1445 0.283333 10.3334 0.283333C10.5223 0.283333 10.6778 0.344444 10.8 0.466666L13.2 2.86667C13.2667 2.93333 13.3139 3.00556 13.3417 3.08333C13.3695 3.16111 13.3834 3.24444 13.3834 3.33333C13.3834 3.42222 13.3695 3.50556 13.3417 3.58333C13.3139 3.66111 13.2667 3.73333 13.2 3.8L10.8 6.2C10.6667 6.33333 10.5084 6.39722 10.325 6.39167C10.1417 6.38611 9.98892 6.32222 9.8667 6.2ZM3.20003 11.5333L0.800033 9.13333C0.733366 9.06667 0.686144 8.99444 0.658366 8.91667C0.630588 8.83889 0.616699 8.75556 0.616699 8.66667C0.616699 8.57778 0.630588 8.49444 0.658366 8.41667C0.686144 8.33889 0.733366 8.26667 0.800033 8.2L3.20003 5.8C3.32225 5.67778 3.47503 5.61389 3.65837 5.60833C3.8417 5.60278 4.00003 5.66667 4.13337 5.8C4.2667 5.92222 4.33614 6.075 4.3417 6.25833C4.34725 6.44167 4.28337 6.6 4.15003 6.73333L2.88337 8H12.3334C12.5223 8 12.6806 8.06389 12.8084 8.19167C12.9361 8.31944 13 8.47778 13 8.66667C13 8.85556 12.9361 9.01389 12.8084 9.14167C12.6806 9.26944 12.5223 9.33333 12.3334 9.33333H2.88337L4.15003 10.6C4.27225 10.7222 4.33614 10.8778 4.3417 11.0667C4.34725 11.2556 4.28337 11.4111 4.15003 11.5333C4.02781 11.6667 3.87225 11.7333 3.68337 11.7333C3.49448 11.7333 3.33337 11.6667 3.20003 11.5333Z" fill="white"/>
</svg>
